<svg xmlns="http://www.w3.org/2000/svg" xmlns:xlink="http://www.w3.org/1999/xlink" viewBox="0 0 108.4 108.4"><style><![CDATA[.AQ{fill:#f6c513}.AR{fill:#f8c610}.AS{fill:#f5c914}.AT{fill:#f9c70f}.AU{fill:#f5c414}.AV{fill:#f8c710}.AW{fill:#f7c511}.AX{fill:#fbc80a}.AY{fill:#f9c710}.AZ{fill:#f3c315}.Aa{fill:#f4c915}.Ab{fill:#f7c611}.Ac{fill:#f5ca14}.Ad{fill:#f7c610}.Ae{fill:#f6c514}.Af{fill:#f6c511}.Ag{fill:#f4c315}.Ah{fill:#f8ca12}.Ai{fill:#f3c917}.Aj{fill:#ffcb04}.Ak{fill:#fbc80e}.Al{fill:#f8c611}.Am{fill:#f6c512}.An{fill:#f4c414}.Ao{fill:#f5c415}.Ap{fill:#f8ca11}.Aq{fill:#f8c912}.Ar{fill:#f5c915}.As{fill:#f2c918}.At{fill:#ffcd14}.Au{fill:#f7c613}.Av{fill:#f5c714}.Aw{fill:#f7ca13}.Ax{fill:#ffd021}.Ay{fill:#f7c612}.Az{fill:#f1c119}.BA{fill:#dab02b}.BB{fill:#f7ca12}.BC{fill:#f6c913}]]></style><circle cx="54.2" cy="54.2" r="54.2" fill="#fdaf3a"/><defs><circle id="A" cx="54.2" cy="54.2" r="54.2"/><path id="B" d="M53.3 51c0 .1 0 .1 0 0 0 .1 0 .1 0 0z"/></defs><clipPath id="C"><use xlink:href="#A"/></clipPath><path d="M103.1 110.8l16.8-58.1-36.6-36.6-55.4 55.8 20 20-2.1-.7-6.2-6.2-5.3-.4-2.8-2.5-5.8 7.3 37.4 37.4z" opacity=".15" clip-path="url(#C)"/><path d="M54.5 100.6h-.7v-.1c.2 0 .4 0 .7.1 0-.1 0 0 0 0z" fill="#403e3e"/><path d="M54.9 100.5c0 .1 0 .1 0 0h-.2v-.1c0 .1.1.1.2.1z" fill="#dcdbdb"/><path d="M53.4 100.6c.1-.1.1-.1.2-.1v.1h-.2z" fill="#d9d8d8"/><path d="M53.6 100.6c.1-.1.1-.1.2 0h-.2z" fill="#8f8e8e"/><path d="M54.6 100.5c0 .1 0 .1 0 0h-.1.1z" fill="#9f9d9e"/><path d="M65.2 80c-.4.3-.8.5-1.3.8l-4.4 2.5-4.5 2.6c-.1.1-.2.1-.3 0l-9.4-5.1c-.1 0-.1-.1-.2-.1-.1-.1-.1-.3-.1-.4V61c.1-.2.2-.1.3-.1l.9.3c.4.1.8.2 1.2.1.8-.1 1.2-.6 1.2-1.4.1-.8-.3-1.4-.7-2-.3-.5-.7-.9-1.1-1.2h-.1s-.1-.1-.1 0c-.1.1-.1.1-.1.2-.2.4-.2.6.1 1 .2.2.4.4.5.6l.4.4c0 .1.1.1.1.2v.2c0 .2-.2.3-.4.3-.3-.1-.5-.3-.7-.5s-.3-.4-.5-.6-.4-.3-.6-.4c-.1 0-.2 0-.2-.1-.1-.3 0-.5 0-.8v-.1c.1-.1.2-.2.2-.3v-.5c.1-.4.2-.7.1-1.1-.1-.6-.2-1.1-.4-1.7-.1-.1-.1-.3-.1-.4V42.6c0-.1.1-.2.2-.3.2-.2.4-.3.6-.5.2-.1.3-.3.4-.4s.2-.1.2-.2l.2-.2c.1-.1.1-.2-.1-.3s-.4-.2-.6-.2-.4.1-.5.2c-.2.2-.4.3-.5.5-.1.1-.1.2-.2 0v-.9c.1-.2.1-.4.2-.6 0-.3 0-.5-.2-.7V22.7c0-.1 0-.3.1-.4l2.3-.7c1.6-.6 3-1.3 4.4-2.3 1.2-.9 2.3-2 3-3.4 0 0 0-.1.1-.1.1.1.1.2.2.3.9 1.3 2 2.4 3.3 3.4 1.7 1.3 3.6 2.2 5.7 2.6.3.1.6.1 1 .2.1 0 .2.1.2.2.1.1.1.3.1.4v12.9c-.1.2-.1.2-.3-.1v-.2c-.1-.1-.1-.2-.2-.2l-.2-.2c0-.1-.1-.1-.1-.2 0 0 0-.1-.1-.1-.1-.1-.1-.2-.2-.2v-.1s0-.1-.1-.1l-.1-.1h-.1v.1c-.3.6-.2 1.1.2 1.6 0 .1.1.1.1.2.2.3.6.6.9.9.1.1.2.1.1.3-.2.3-.3.3-.6.2s-.6-.3-.8-.6c-.2-.2-.3-.4-.5-.6-.3-.4-.8-.5-1.2-.3-.1.1-.1.2-.1.3.1.4.3.7.7.8l.9.3.6.3c.2.2.3.3.2.5-.1.1-.3.2-.5.2-.4-.1-.7-.2-1.1-.4-.2-.1-.4-.1-.5-.2-.5-.2-.8.1-1.1.5-.1.1 0 .2.1.2.6.3 1.2.6 1.9.7.4.1.8.2 1.2.2s.7-.2 1-.3c.1 0 .2-.1.3 0v1.4c0 .1-.1.1-.2.1-.2 0-.4.1-.6.2h-.2c-.1.2.1.2.2.3v.1l.1.1c0 .1.1.1.1.1.1.2.4.3.3.5v15c-.1.2-.1.1-.2 0-.2-.3-.2-.2-.5 0-.7.6-1.3 1.4-1.8 2.2-.2.4-.2.8-.2 1.3 0 .2 0 .4.1.5.2.6.7.8 1.3.9.3 0 .6 0 .9-.1.1 0 .2-.1.3.1v18.6c.2-.8.2-.6.1-.5z" fill="#2e3092"/><path d="M45.1 42.2v10.6c-.2-.1-.2-.2-.2-.3-.2-.4-.2-.5-.7-.1-.3.2-.3.5-.2.9.2.5.4.9.5 1.4 0 .1.1.1.1.2 0 .2-.1.4-.2.5-.2.1-.3 0-.4-.1-.3-.2-.4-.5-.5-.8-.1-.2-.1-.4-.2-.6-.1-.4-.5-.6-.9-.7-.1 0-.2 0-.3.2-.1.4 0 .9.4 1.2.4.2.8.5 1 .9.1.1.1.2.2.4 0 .2 0 .3-.2.4-.1.1-.2 0-.3-.1l-.9-.9c-.2-.1-.4-.3-.6-.3-.5-.2-1-.1-1.5.2l2.6 1.9c.3.2.7.3 1.1.4a1.69 1.69 0 0 0 1-.3s.1-.1.2-.1v.9c-.1.1-.2.1-.3.1-.2 0-.3.1-.2.3 0 .3.2.6.4.8l.2.2v.6c-.1.1-.2.1-.3 0-.5 0-.9.1-1.2.5-.1.1-.1.2.1.2l1.1.3c.1 0 .2 0 .3.1v19.7c-.3-.1-.6-.3-1-.4l-5-2.4-3.5-1.7-5.4-2.6c-.8-.4-1.5-.8-2.2-1.5-.8-.8-1.3-1.7-1.7-2.7-.4-1.1-.6-2.1-.7-3.3-.1-1 0-2 0-2.9V15.6c.2.3.4.5.6.7.8.9 1.7 1.6 2.7 2.3 2.1 1.5 4.4 2.5 6.9 3.1l3.2.5c.9.1 1.8.1 2.7.1 1.1 0 2.2-.1 3.2-.3h.3v16.8c-.1.1-.2.1-.3.1-.5.1-.8.4-.8.9-.1.5-.1 1-.5 1.4-.1.1-.1.2-.2.2-.1.1-.3.1-.4 0s-.1-.2-.1-.3l.3-.9c.1-.3.1-.6.2-.9 0-.5-.2-.9-.6-1.2-.2-.1-.2-.1-.3.1l-.5 2.7c-.1.3-.1.6 0 .9.2.8.6 1.2 1.5 1.3.4-.5 1-.6 1.5-.9 0-.1 0-.1 0 0z" fill="#ee1c24"/><path d="M65.2 56.2V41.1h.1c.1 0 .1.1.1.1.1.1.3.2.4.3.2.1.4.3.6.4.5.4 1.1.4 1.7.3.7-.1 1.2-.6 1.2-1.4 0-.3 0-.7-.1-1l-.4-1.9c0-.1 0-.3-.1-.4V37c-.1.1-.2.1-.2.2-.4.4-.5.8-.4 1.3s.2.9.4 1.4c.1.2.1.3-.1.5-.2.1-.4.1-.5-.1-.2-.3-.4-.6-.5-.9 0-.2-.1-.5-.1-.7 0-.5-.6-.8-1-.8-.1 0-.2.1-.2.2-.1.3 0 .5.1.8 0 .1 0 .2.1.2l.2.2c.2.2.5.4.6.8 0 0 0 .1.1.1.1.2.1.3-.1.5-.1.1-.4.1-.5 0-.2-.2-.4-.4-.6-.5V40l-.3-.3c-.1-.1-.2-.1-.3-.2l-.1-.1v-1.5c0-.1.1-.2.2-.2.5-.3.6-.8.5-1.3-.1-.4-.3-.8-.6-1.1l-.1-.1V21.6c.3 0 .5.1.8.1.6.1 1.3.1 1.9.2.7 0 1.4.1 2.1 0 1 0 2.1-.2 3.1-.4 1.6-.3 3.1-.9 4.6-1.6 1.4-.7 2.7-1.6 3.8-2.7.6-.5 1.1-1.1 1.6-1.7.1 0 0 .1 0 .1v49.3c-.1 1.6-.3 3.2-1 4.7-.7 1.4-1.6 2.4-3 3.2l-7.6 4-4.5 2.4c-.5.2-.9.5-1.4.7l-.1.1V60.8c0-.1.1-.1.2-.1l2.2-.6h.1L68 60c-.1-.1-.1-.1-.2-.1-.4-.2-.8-.2-1.2-.1-.2.1-.5.1-.7.2-.1 0-.2.1-.3 0-.1-.2 0-.4 0-.6 0-.1.1-.2.2-.2.2-.1.4-.1.6-.1.5-.1.7-.6.8-1 0-.1-.1-.2-.2-.2-.4 0-.8.1-1.1.4 0 0-.1.1-.1.2-.1 0-.1.1-.2 0-.1-.3 0-.7 0-1-.3-.7-.4-1-.4-1.3z" fill="#00adee"/><path d="M54.6 100.5h-1.2c-.7-.1-1.4-.3-2.1-.5l-2.1-.6-10.7-3.1c-.5-.2-1.1-.3-1.6-.5-.1 0-.2-.1-.2-.2 0-.9.1-1.8.2-2.6.1-.7.1-1.4.2-2.2 0-.1 0-.2-.1-.2-.4-.3-.8-.4-1.3-.4-.4 0-.8 0-1.2.1-.2 0-.2 0-.2.2V92c0 .3 0 .3-.3.3-.7.1-1.4.1-2.1 0l-2.6-.4c-1.2-.3-2.2-.8-3.1-1.6-.3-.3-.6-.6-.9-1-.1-.1-.1-.2-.1-.3l.7-2.4.9-2.9v-.3c0-.5.1-1.1.4-1.5.4-.7 1.1-1.1 2-1 .7.1 1.4.4 2 .7a.76.76 0 0 0 .4.2c.1.1.1.1.1.2-.2.6-.4 1.2-.5 1.8l-.3 1.1c0 .2 0 .2.1.2.7.2 1.4.3 2 .4.2 0 .4 0 .6.1.1 0 .1 0 .1-.1v-.7c0-.2-.1-.4 0-.5s.3-.1.5-.1c.9-.2 1.9-.4 2.9-.3a4.99 4.99 0 0 1 2.1.5c.9.5 1.3 1.3 1.4 2.4 0 .3 0 .7-.1 1h-.1s.1 0 .1.1l1.7.6 7.5 2.7 2.6.9c.9.3 1.9.3 2.8.2.8-.1 1.5-.4 2.2-.7l10.4-3.8c.3-.1.3-.1.2-.4-.1-1.5.6-2.9 2.3-3.3.6-.2 1.3-.2 1.9-.2l2.5.4c.2 0 .2 0 .2.2v1c0 .1 0 .2.2.2l2.4-.4c.4-.1.4-.1.3-.5l-.8-2.7c0-.1-.1-.2.1-.2.6-.4 1.2-.7 1.9-.9.4-.1.7-.1 1.1-.1.6.1 1.1.4 1.4.9.2.4.4.9.4 1.3s.1.8.3 1.2l1.4 4.7c0 .2 0 .3-.1.4-.8 1-1.7 1.7-2.9 2.2-.9.4-1.9.6-2.9.7-.9.1-1.8.1-2.7.1h-.4c-.1 0-.1 0-.1-.1v-1.7c0-.1 0-.1-.1-.2-.6-.1-1.2-.2-1.8 0-.4.1-.8.3-1.1.6-.1.1-.1.1-.1.2l.3 2.3c.1.6.1 1.2.2 1.8 0 .1 0 .2-.2.2l-3.8 1.2-5 1.5-5.5 1.7c-.5.2-1 .4-1.6.5-.3 0-.5.1-.8.1h-.3z" fill="#242020"/><path d="M40.4 87.7c.1 0 .1.1.1.1-.1 0-.1 0-.1-.1-.1 0 0 0 0 0z" fill="#dedede"/><path d="M51.2 44.7c-.1.2 0 .4 0 .5v7c0 .1 0 .1-.1.2-.1 0-.1-.1-.1-.1-.2-.3-.3-.6-.5-.9-.2-.4-.5-.8-.7-1.2l-2.6-4.6c0-.1-.1-.1-.1-.2v6.1c.1.4.3.6.7.7.1 0 .1 0 .1.1s0 .1-.1.1h-1.9c-.1 0-.1 0-.2-.1 0-.1 0-.2.1-.2.5 0 .7-.3.7-.8v-6.4c0-.2 0-.3-.1-.5-.1-.1-.1-.2-.2-.3-.1-.2-.2-.3-.4-.3-.1 0-.1 0-.1-.1s0-.1.1-.1h1.8c.1 0 .2 0 .3.1l2.4 4.4v.1c0 .2.2.4.3.6l.1.1c.1 0 .1-.1.1-.1v-3.7c.1-.2.1-.3-.1-.5v-.1c0-.3 0-.3-.3-.4 0-.1-.1 0-.1-.1-.1-.1-.3-.1-.2-.2h1.8c.1.1 0 .1-.1.1-.2 0-.3.2-.4.3-.2.1-.1.3-.2.5zm3.1-.7c.6-.5 1.4-.6 2.1-.4l.6.3c.1.1.2.1.3.2.2.1.3 0 .4-.2 0-.1 0-.2.1-.2 0-.1 0-.2.1-.2s.1.1.1.2v2.6c0 .1 0 .1-.1.1s-.1 0-.1-.1c0-.3-.1-.6-.2-.9s-.2-.5-.4-.7c-.5-.6-1-.8-1.8-.6h-.1s-.1 0-.1.1c-.2 0-.3.2-.4.3l-.3.3s0 .1-.1.1c-.1.1-.1.1-.1.2-.5 1.2-.5 2.5-.4 3.8 0 .5.1 1 .3 1.5.1.2.2.4.3.7.5.9 1.5.9 2.1.5.2-.1.4-.3.6-.5s.3-.5.5-.7v.6c0 .1 0 .1-.1.1-.2.3-.4.6-.7.8-.4.4-1 .6-1.5.5-.5 0-.9-.1-1.3-.4-.1-.2-.4-.3-.6-.4v-.1s-.1 0-.1-.1h-.1c0-.1-.1-.1-.1-.2h-.1c-.1 0-.1-.1-.2-.2 0 0 0-.1-.1-.1-.3-.4-.4-.8-.5-1.2-.4-1.6-.3-3.1.5-4.5.1-.1.1-.3.2-.4.1 0 .1-.1.1-.1v-.2l.4-.4c.1 0 0-.1.1-.1.6.1.7.1.7 0zm7.1 8.4c-.4-.1-.8-.3-1.1-.6-.5-.4-.8-.9-1-1.5-.6-1.7-.5-3.4.4-5.1.3-.5.7-1 1.2-1.3.7-.4 1.5-.5 2.3-.1l.6.3c.3.2.5.1.6-.3v-.2c0-.1 0-.1.1-.1 0 0 .1 0 .1.1v2.7c0 .1 0 .1-.1.1s-.1 0-.1-.1c0-.2-.1-.3-.1-.5-.1-.3-.2-.7-.4-1-.1-.2-.3-.4-.5-.6-.5-.4-1.2-.4-1.7 0-.4.3-.6.8-.8 1.2l-.3 1.4c-.1 1.1 0 2.2.2 3.2l.3.9c.4.7 1.1.9 1.8.7h.2c.1 0 .3-.1.4.1 0 .1-.2.2-.3.3-.3.2-.7.2-1.1.2-.2.3-.5.2-.7.2zm-16.3 4.4c-.4.4-.9.5-1.5.4-.3-.1-.7-.2-1-.5L40.3 55s-.1 0-.1-.1c.6-.5 1.2-.4 1.7-.1.3.2.6.4.8.6l.5.5c.1.1.1.2.3.1.1-.1.2-.2.2-.3s0-.1-.1-.2c-.2-.3-.3-.5-.6-.7-.2-.1-.4-.3-.6-.4-.3-.2-.4-.6-.4-.9 0-.1 0-.2.1-.4 0-.2.1-.2.2-.2.4.1.7.3.9.5.1.1.1.3.2.4.1.2.2.5.2.7.1.2.2.4.4.6.2.1.3.1.4-.1.1-.1.1-.2 0-.4l-.6-1.4c-.2-.5-.1-.9.3-1.1.4-.3.3-.3.5.1.1.2.2.3.3.5.2.4.3.9.4 1.3.1.3.1.6.2.9s0 .7-.2 1v.4c0 .2-.1.3-.2.5zm0-14.6c-.3.3-.7.4-1.1.5h-.9c-.7-.1-1.1-.6-1.2-1.2-.1-.4 0-.8 0-1.3l.5-2.6c0-.2 0-.2.2-.1.6.4.8.9.7 1.6-.1.5-.3 1-.4 1.4 0 .1-.1.2 0 .3s.2.1.4 0c.1 0 .1-.1.2-.2.2-.3.3-.6.4-.9 0-.3.1-.5.1-.8 0-.1.1-.2.1-.2.2-.3.6-.4 1-.5.1 0 .1.1.1.1a1.39 1.39 0 0 1-.2 1.1c-.2.3-.5.5-.7.8-.1.1-.2.3-.3.4s-.1.3 0 .4.3 0 .5-.1l.4-.4c.1-.1.1-.1.2-.1l.6-.6c.3-.3.6-.4 1-.2.2.1.3.1.5.2 0 .1-.1.2-.2.2 0 0-.1 0-.1.1v.1c0 .1-.2.1-.1.2v.1s-.1.1-.2.1v.1c0 .1 0 .1-.1.2-.1.2-.3.3-.5.5l-.1.1c-.1 0-.1.1-.2.1s0 .1-.1 0c-.1.2-.3.4-.5.6zm20.1 15.9c.1-.1.1-.2.2-.2.4-.4.8-.5 1.3-.4.1 0 .1 0 .1.1 0 .4-.1.7-.4 1-.1.1-.2.1-.3.2-.3.1-.6.1-.9.3l-.6.3c-.1.1-.2.2-.2.3v.3c.1.1.1.1.2 0 .2-.1.3-.2.5-.2l.9-.3c.4-.1.8-.1 1.2.1 0 0 .1 0 .1.1s.1.1.2.2c0 0 0 .1.1.1v.3h-.2c-.5.2-1 .3-1.6.5-.3.1-.6.1-.9.3-.1 0-.2 0-.3.1-.4.1-.9.1-1.3 0-.5-.1-.8-.4-.9-.9-.2-.5-.1-1-.1-1.5 0-.1.1-.1.1-.2.5-1 1.2-1.8 2-2.5.2-.1.2-.1.3 0s.1.2.2.3c0 .1 0 .1.1.2.1.2.1.5-.1.7 0 .1-.1.2-.1.2l-1 1.1c-.2.2-.2.4.1.6.1 0 .1 0 .2-.1h.3c.1 0 .2 0 .2-.1v-.1c.1 0 .1-.1.1-.2l.5-.6zm-20.1.9c-.4-.3-.5-.6-.6-1.1 0-.1 0-.2.1-.2h.4c.1 0 .1 0 .2.1.3.1.5.2.7.4s.4.5.6.7.4.3.6.4.4 0 .4-.3v-.2c0-.1 0-.1-.1-.1v-.1c0-.1-.1-.1-.1-.1-.1-.1-.2-.3-.3-.4l-.7-.7c-.2-.2-.3-.5 0-1 .1 0 .1-.1.1-.2.1-.1.2 0 .3 0h.1s.1 0 .1.1h.1c.7.6 1.2 1.2 1.6 2 .4.6.3 1.3.1 2-.2.5-.5.7-1 .8-.4.1-.8.1-1.2-.1-.4-.1-.8-.3-1.3-.3-.5-.1-1-.3-1.5-.4-.3-.1-.3-.1-.1-.3.4-.5.9-.6 1.5-.5.1-.1.2 0 .3 0 .4.1.7.3 1.1.4.1 0 .1.1.2.1h.2c.1 0 .1 0 .1-.1l-.3-.3c-.4-.3-.8-.3-1.2-.4-.2-.1-.3-.1-.4-.2zm5.5-21.6c.1.1.1.1.1.2-.5.3-1 .5-1.6.7-.5.2-1 .2-1.5.3-.3 0-.6 0-.8-.1s-.4-.1-.6-.2c0-.2-.1-.1-.2-.1h-.1s-.1 0-.1-.1c-.1-.2-.1-.3-.3-.4v-.1c0-.1 0-.1-.1-.2-.1-.3-.1-.6 0-.9.1-.4.3-.7.5-1 .6-.7 1.1-1.4 1.7-2.2l.2-.2c.3.4.4.9.3 1.4-.1.3-.2.5-.4.7-.3.4-.6.6-1 .9-.1.1-.2.1-.1.2s.2.2.3.2.1 0 .2-.1c.3-.1.5-.3.7-.6.2-.2.3-.4.5-.6.1-.2.3-.3.6-.4s.5 0 .8.1c.1 0 .1.1.1.2-.1.5-.3.9-.8 1l-.9.3c-.2.1-.4.2-.6.4s-.1.3.1.4c.1.1.3.1.4 0l1.5-.6c.3-.1.6-.1.9.1h.1s0 .1.1.1c-.1.5-.1.6 0 .6zm-.5-1.9c-.3-.4-.3-1 0-1.5.1-.1.2-.2.3-.4v-.1c.1 0 .2-.1.2-.2.2 0 .2-.2.3-.2 0 0 .1 0 .1-.1h.1c.1 0 .1-.1.2-.1 0 0 .1 0 .1-.1h.1l1.5-1.1h.1s.1 0 .1-.1c.1 0 .1.1.1.1.2.5.1 1-.3 1.4-.2.2-.4.4-.6.5-.3.2-.7.4-1.1.6-.1 0-.2.1-.2.2s.1.2.2.3h.3c.3-.1.6-.2.9-.4.2-.1.4-.3.6-.4.3-.2.6-.2.9-.2.2 0 .4.1.6.3.1 0 .1.1.1.2-.2.4-.7.8-1.1.8h-1c-.2 0-.5.1-.6.2-.2.1-.2.2 0 .4.1.1.2.2.4.2.5 0 .9-.1 1.4-.1h.2c.4 0 .7.2.9.5.2.5.2.5-.3.6-1 .2-2 .2-2.9 0-.3 0-.5-.2-.7-.3-.1-.1-.2-.2-.3-.2h-.2c0-.2-.1-.2-.2-.2V36c-.1-.4-.1-.4-.2-.5zm9.8 24.1c.3-.3.6-.5 1-.6h.2c.1.2.2.4.2.5.1.3 0 .5-.3.7s-.6.5-.9.7c-.2.1-.4.3-.6.4-.1.1 0 .1-.1.2 0 .4.1.5.5.4.2-.1.4-.1.5-.3.2-.2.5-.4.7-.6.1-.1.3-.2.5-.2.3 0 .6-.1.8.1.1 0 .1.1.1.2-.1.2-.1.4-.3.6s-.4.3-.6.4c-.2 0-.5 0-.7.1-.3 0-.6.1-.9.3-.1 0-.2.1-.2.2-.1.1 0 .3.1.4h.2l1.3-.3c.3 0 .7-.1 1 0 .4.1.8.5 1 .9-.2.1-.5.1-.7.1l-2.5.3c-.4 0-.9 0-1.3-.2-.1-.1-.3-.1-.4-.3-.2-.2-.2-.4-.4-.7-.1-.3-.1-.6 0-.8 0-.2.1-.4.2-.6 0-.1 0-.1.1-.2s.3-.2.3-.4c.1 0 .1-.1.2-.2v-.3c.1-.1.1-.2.2-.2s.1 0 .1-.1h.2c.2 0 .2-.3.4-.2 0-.3.1-.3.1-.3zm5.5-24.3c.4.4.6.8.6 1.3.1.5-.1.9-.5 1.2-.1.1-.2.2-.3.2-.3.1-.6.3-.9.3-.2.1-.5 0-.7 0-1-.1-1.9-.4-2.8-.9 0 0-.1 0-.1-.1.1-.2.3-.4.5-.6s.5-.2.8-.1l1.5.6c.2.1.3 0 .4 0 .2-.1.2-.2.1-.4-.2-.2-.3-.3-.6-.4l-1-.3c-.4-.1-.7-.6-.8-1 0-.1 0-.1.1-.1.2-.1.5-.1.8-.1.2 0 .5.1.6.4.1.2.3.4.4.6.2.3.5.4.7.6.3.1.4.1.6-.2 0-.1.1-.1 0-.2-.3-.2-.5-.5-.8-.7-.1-.1-.1-.2-.2-.2 0-.1 0-.2-.1-.2-.4-.5-.5-1.2-.2-1.7 0 0 .1 0 .1-.1.1-.1.1-.1.2 0 0 .1 0 .1.1.1l.1.1v.1s0 .1.1.1c.1.1.2.2.2.3v.1l.1.1c0 .1.1.1.1.2 0 0 0 .1.1.1 0 0 .1 0 .1.1l.2.2v.1c0 .1.1.2.2.3s.1.1.3.2c-.1 0 0 0 0 0zm-7.3-3c-.2-.4-.1-.7 0-1.1.1 0 .1 0 .2.1l2.4 1.7c.4.3.6.6.8 1a.91.91 0 0 1 0 1c-.1.1-.2.2-.2.3 0 0 0 .1-.1.1h-.1c0 .1-.1.1-.1.1v.1c-.4.4-.8.6-1.4.6-1 .1-1.9.1-2.9-.1h-.1c.1-.3.2-.5.4-.8.2-.2.4-.3.6-.2.4 0 .9.1 1.3.1h.3c.1 0 .3 0 .4-.1.2-.2.2-.3 0-.4s-.4-.2-.7-.2H58c-.4 0-.7-.2-.9-.5v-.1l-.1-.1v-.3c0-.1.2 0 .2-.1h.1c.3-.1.5-.2.8-.1.1 0 .2 0 .2.1.2.2.4.3.6.5a2.47 2.47 0 0 0 .9.4h.3c.2 0 .3-.1.3-.3 0-.1 0-.1-.1-.1-.2-.1-.3-.1-.4-.2-.2-.2-.4-.2-.6-.3h-.1c0-.1-.1-.1-.2-.2v-.1h-.1l-.1-.1h-.1c-.1-.1-.1-.2-.2-.2h-.1c-.2-.3-.2-.4-.3-.5zm-8.8 30.6c.4-.1.7 0 1.1.1.3.1.6.1.9.2.1 0 .2.1.3-.1.1-.1.1-.2 0-.4l-.2-.2c-.3-.2-.6-.3-.9-.3s-.5 0-.8-.1c0 0-.1 0-.2-.1h-.2c0-.1-.1-.1-.1-.1l-.1-.1c0-.1-.1-.2-.1-.2-.1-.1-.1-.2-.1-.4 0-.1 0-.1.1-.2.5-.2.9-.1 1.3.2.2.2.5.4.7.6s.4.2.7.3c.2 0 .3-.1.3-.3 0-.1 0-.3-.2-.4s-.3-.3-.5-.4c0 0-.1 0-.1-.1-.1-.2-.3-.3-.5-.4 0-.1-.1 0-.1-.1h-.1c-.3-.2-.4-.5-.3-.8 0-.2.1-.3.2-.5 0-.1.1-.1.2-.1.3.2.6.3.9.6.1.1.1.1.2.1 0 .1.1 0 .1.1h.3c0 .1.1.1.1.1.4.4.8.8 1.1 1.3.1.1.1.2.1.3.1.3.2.7.1 1.1v.2c0 .3-.3.4-.4.7-.3.3-.7.4-1.1.4-.4.1-.9 0-1.3-.1l-2-.2h-.2c-.2-.1-.1-.2-.1-.3l.5-.5c.1 0 .1 0 .2-.1h.1c0 .2.1.2.1.2zm16.9-23.7c-.1-.3-.2-.6-.1-.9 0-.2.1-.2.2-.1.4.1.7.2.9.5.1.1.1.2.1.3 0 .3.1.5.1.8.1.3.2.6.4.9 0 .1.1.1.2.2s.3 0 .4-.1v-.1c-.1-.2-.2-.4-.2-.6l-.3-1.1c0-.5.1-1 .5-1.3.1-.1.2-.1.3-.2h.1c.1 0 0 .1.1.1v.2c0 .1 0 .3.1.4l.3 1.3c0 .2.1.4.1.6.1.4.1.8 0 1.2-.1.7-.6 1.1-1.4 1.2-.4 0-.8 0-1.1-.1h-.1c-.3-.2-.7-.4-1-.7v-.1c-.1 0-.2-.2-.3-.2v-.1c-.1-.1-.3-.2-.3-.4 0-.1-.1-.1-.2-.1 0-.1-.1-.1-.2-.2 0-.1-.1-.1-.1-.2 0 0 0-.1-.1-.1v-.1c0-.1-.1-.2-.1-.2-.1-.1-.1-.2-.1-.2h.1c.2-.2.5-.2.8-.2h.1c.1.1.2.1.3.2v.1c.1.2.3.3.4.4l.7.7c.2 0 .3.1.4 0s.1-.2 0-.4v-.2c-.1-.4-.3-.6-.6-.8 0-.1-.1-.2-.2-.2l-.1-.1s-.1 0-.1-.1zm-9.8 24.7c-.2.1-.5.1-.7.1-.5-.1-.8-.4-1.2-.7 0 0 0-.1-.1-.1-.1-.1 0-.2-.1-.2 0-.1 0-.3-.2-.3v-.4c0-.1 0-.2-.1-.2-.2-.5-.3-1-.4-1.4v-.3h.6c.3.1.4.3.5.5.1.5.3 1 .4 1.5 0 .1.1.2.2.3.2.1.3.1.3-.1.1-.2.1-.4 0-.7l-.3-.9c-.1-.4 0-.8.3-1.1 0 0 .1-.1.1 0 .2.2.4.3.5.6.1.2.1.4 0 .6s-.1.4-.2.6c-.1.3-.1.6 0 .9 0 .1 0 .2.1.3s.2.1.3.1.1-.1.1-.2c0-.3 0-.6.1-.9v-.2c.1-.1 0-.2.1-.2s0-.1 0-.2v-.5c.1 0 .1-.1.1-.1v-.1c.2-.3.6-.4.9-.4v.2l-.7 2.7-.3.6-.2.2c0 .1-.1.1-.2.1v.1c0 .1-.1.1-.1.2.3-.5.3-.5.2-.4.1-.1 0 0 0 0z" class="Aj"/><path d="M52.9 63.7c0-.1 0-.2.1-.3.1 0 .1-.2.1-.3s0-.1.1-.1c0 .1 0 .1.1.2.8.5 1.5 1.1 2.2 1.7h.1c.4-.3.8-.7 1.2-1l1.1-.8c.1-.1.2-.2.2-.4.1.1.2.2.2.3 0 0 0 .1.1.1s.1.1.1.2c-.1-.1-.1-.1-.2 0l-1 .6-1.2.9-.2.2.7.7 1.7 1.8v.1c-.1.1-.1 0-.2 0l-.2-.2c0 .2.3.3.2.6l-.9-1.3c-.4-.5-.9-1-1.4-1.4-.2-.1-.2-.1-.3 0-.7.6-1.3 1.3-1.8 2 0 0 0 .1-.1.1-.1-.1-.1-.2 0-.3s0-.1 0-.2c.3-.4.6-.7.9-1l.9-.9a3.04 3.04 0 0 0-.7-.5l-1.4-.9c-.2-.1-.2-.1-.4.1z" class="Ak"/><path d="M55.7 31.7c.4 0 .6.3.6.6s-.2.6-.6.6-.6-.3-.6-.6a.65.65 0 0 1 .6-.6z" fill="#fecb05"/><path d="M56.4 35.1c0 .4-.3.6-.6.6a.65.65 0 0 1-.6-.6.65.65 0 0 1 .6-.6c.3-.1.6.2.6.6z" fill="#ffcb05"/><path d="M45.1 40.6l-.6.6c-.1.1-.2.1-.4.1s-.2-.1-.2-.2c0-.2.1-.5.3-.6l.9-.9v1z" fill="#ef1d24"/><path d="M61.4 52.4c.1 0 .2-.1.3 0 .2-.1.5 0 .7 0h.2c.1 0 .2 0 .3-.1 0-.1.1-.1.1-.1.1 0 .2 0 .3-.1 0 0 .1 0 .1-.1s-.1-.1-.2-.1H63c.6-.3.9-.8 1.3-1.4v.6c0 .1 0 .1-.1.1-.2.4-.5.7-.9 1-.5.3-1 .4-1.5.4h-.1c-.1-.1-.2-.1-.3-.2z" fill="#fcc90a"/><path d="M58.1 68.1c0-.1 0-.3-.1-.3-.1-.1-.1-.3-.2-.3 0-.1.1-.1.1 0 .1.1.3.1.3.3 0 .1.1 0 .1 0 .3.3.5.6.7.9-.2.1-.3.1-.5.2-.1 0-.1 0-.1-.1-.1-.3-.2-.5-.3-.7z" fill="#fdc908"/><path d="M53.7 67c.1 0 .2 0 .1.1 0 .1 0 .2-.1.1v.3c-.1.1-.2.3-.3.5-.1.1-.2.2-.2.4-.1.3-.1.3-.4.2-.1 0-.2-.1-.3-.1.1-.2.3-.4.5-.6s.4-.4.5-.6c0-.1.1-.2.2-.3z" fill="#fcc909"/><path d="M50.5 51.4c.1 0 .2-.1.2.1 0 .1 0 .1.2.2v.1c0 .2 0 .2.2.2-.1.1 0 .2 0 .3.1 0 .1 0 .1-.1v-7c0-.2-.1-.3 0-.5v7.5c0 .1 0 .2-.1.2s-.1-.1-.2-.1c-.1-.3-.3-.6-.4-.9zm.4-6.1c.1 0 .1.1.1.1v3.5c0 .1 0 .2-.2.1-.1 0-.2-.1-.2-.2s0-.2-.1-.2-.1-.1-.1-.1v-.2c.1.2.2.4.4.6v-3.4c.1-.1.1-.2.1-.2z" class="AX"/><path d="M63.8 35.2s0-.1 0 0c.2 0 .2 0 .2.1v.1c.2-.1.1 0 .1.1s.1.1.2.2c0 .1.1.1.2.1 0 0 .1.1.2.1s.1 0 .1.1 0 .1.1.1.1 0 0 .2h-.1c0-.1-.1-.1-.1-.2-.3-.2-.5-.4-.7-.7-.1-.1-.2-.1-.2-.2z" fill="#f8c612"/><path d="M53.6 67c-.1.2-.1.4-.3.5 0 .2-.3.1-.3.3h-.1c.2-.2.5-.5.7-.8z" class="Ak"/><path d="M45.7 41.6c.1 0 .1-.1.2 0-.2.3-.5.4-.8.7 0-.1 0-.1.1-.1s.1-.1.1-.2c0 0 0-.1.1-.1s.1 0 .1-.1 0-.1.1-.1l.1-.1z" class="AY"/><path d="M59.4 61.5c-.1-.2.1-.3.2-.4s.2-.1.3-.2h.2c-.1.1-.3.3-.5.4-.1 0-.1.1-.2.2z" class="AQ"/><path d="M51.4 44.2c0-.1 0-.1.1-.1s.1 0 .1-.1.1-.1.1-.1c.1 0 .2 0 .2-.1.1.2.1.2-.1.2-.1 0-.2.1-.4.2z" class="AX"/><path d="M58.7 33c-.1 0-.1 0 0 0a.9.9 0 0 1-.6-.6c.2 0 .1.2.2.3.1-.1.1 0 .1 0 0 .1.1.1.3.3-.1-.1-.1 0 0 0z" class="AV"/><path d="M50.5 44c.4 0 .5.1.3.4-.1-.1-.2-.3-.3-.4z" class="AX"/><path d="M56.6 63.8s-.1 0-.1-.1c.1 0 .2-.1.2-.2h.1l.1-.1c-.1-.2.1-.1.1-.2-.1.3-.2.5-.4.6z" class="AQ"/><path d="M53.8 51.7c.1 0 .1 0 .1.1 0 0 .1.1.1 0h.1c0 .1 0 .1.1.1s0 .1.1.2c-.1 0-.3-.2-.5-.4z" class="AR"/><path d="M45.6 37.7h.3c-.1.1.2.2.1.3-.2 0-.3-.1-.4-.3z" class="AT"/><path d="M54.1 44.2s0 .1.1.2c-.1 0-.2 0-.2.2-.1 0-.2.2-.3.2.1-.3.2-.5.4-.6z" class="Au"/><path d="M64.9 40.7h.3c.1.2.1.3.3.4v.1h-.3c-.1-.2-.2-.3-.3-.5z" class="AY"/><path d="M48.8 63c0 .1-.1.2-.1.2-.1.1-.2.1-.3.2h-.1c.1-.1.3-.3.5-.4z" class="AT"/><path d="M50.9 44.6h.1c.1.1 0 .2 0 .4 0 0-.1 0-.1.1v-.5z" class="AX"/><path d="M50.7 60.6c.1 0 .2.1.3.1 0 .1.2.2.2.3-.2-.1-.4-.2-.5-.4z" class="AQ"/><path d="M59.9 59.6v.2c-.1 0-.2 0-.3.1 0 .1-.1.1-.2.1.2-.2.3-.3.5-.4zM59 33.3c.1-.1.2-.1.2 0s.1.1.2.1.2.1.2.2c-.2 0-.4-.1-.6-.3z" class="AV"/><path d="M48.3 63.5s.1.1 0 0c-.1.2.1.3.1.3h-.3c.1-.1.1-.2.2-.3z" class="AT"/><path d="M64.3 39.8c0 .1 0 .2.2.3.1 0 0 .1 0 .2l-.3-.3c0-.2.1-.2.1-.2z" class="AQ"/><path d="M55 44.6c0-.1 0-.2.1-.2 0 0 .1 0 .1-.1s.1-.1.2-.1l-.4.4z" class="Ab"/><path d="M58.7 60.7s0 .1.1.1c-.1 0-.2 0-.2.2 0 .1-.1.1-.2.1 0-.1.2-.3.3-.4z" class="Al"/><path d="M53.6 51.3c0 .1.1.2.1.3-.1-.1-.2-.3-.3-.4 0 0 .1-.1.1 0l.1.1z" class="AR"/><path d="M53.1 68.4c0-.1-.1-.2.1-.3.1 0 0-.1.1-.1 0-.1.1 0 .1 0-.1.1-.2.2-.3.4z" class="Ak"/><path d="M57.9 33.4c-.2 0-.4 0-.6.1h-.2a.78.78 0 0 1 .8-.1z" class="Ad"/><path d="M53.4 68c0-.1 0-.1.1-.3 0-.1.1-.2.2-.2-.1.2-.2.3-.3.5z" class="Ak"/><path d="M54.2 62.6c.1.1.1 0 .2 0v.3c-.1-.1-.2-.2-.2-.3z" class="AR"/><path d="M50.4 33.6c0 .1 0 .1 0 0-.1.2-.1.3-.3.4.1-.1.2-.3.3-.4z" class="Ay"/><path d="M46.9 58.1c.1 0 .2 0 .2.1s.1.1.1.3c-.1-.1-.2-.3-.3-.4z" class="AQ"/><path d="M51.2 44.7v-.2c0-.2 0-.2.2-.3-.1.1-.1.3-.2.5zm-1.1-1c0 .1.1.2.2.2h-.2c-.1 0-.1 0-.1-.1.1 0 0-.1.1-.1z" class="AX"/><path d="M51 33.1c0 .1-.2.2-.1.3-.1 0-.1-.1-.2-.1.1-.1.2-.1.3-.2zm-.3.2v.2c0 .1-.1.1-.2.1 0-.1.1-.2.2-.3z" class="Ay"/><path d="M50.2 35.7c.1 0 .1.1.2 0v.2c-.1 0-.1-.1-.2-.2z" class="Am"/><path d="M46.5 40.8h.2c-.1.1-.1.2-.2.3-.1-.2-.1-.3 0-.3z" class="AQ"/><path d="M50.5 36c.2 0 .3.1.3.2-.1 0-.2-.1-.3-.2z" class="Am"/><path d="M61.1 35.4c0 .2-.1.3-.2.3v-.1c.1-.1.2-.1.2-.2z" class="Ae"/><path d="M45.1 56.8c0-.2.1-.3.2-.3 0 .1-.1.2-.2.3z" class="An"/><path d="M58.9 60.6c-.1.1-.1.1-.2.1.1-.1.1-.2.2-.3v.2z" class="Al"/><path d="M58.7 33.1h.2c.1 0 .1.1 0 .2 0-.1-.1-.1-.2-.2z" class="AV"/><path d="M46.4 56.2c0 .2 0 .2-.1.2 0-.1 0-.2.1-.2z" class="AU"/><path d="M65.2 35.1c-.1 0-.2-.1-.2-.3.1.1.1.2.2.3z" class="Av"/><path d="M56.8 33.6v.3c-.1-.2-.1-.2 0-.3z" class="Ad"/><path d="M46.7 56.2c-.1.1-.2-.1-.3 0 0-.1.1-.1.1-.1.1 0 .1 0 .2.1z" class="AU"/><path d="M61.3 35.4c-.1-.2.1-.2.2-.3-.1.1-.2.2-.2.3z" class="Ae"/><path d="M63.6 35c.2 0 .1 0 .1.1v.1c0-.1 0-.1-.1-.2z" fill="#f8c612"/><path d="M53.8 61.8c.2.1.2.1.1.2 0 0-.1-.1-.1-.2zm.5 1.1c.1 0 .1 0 .1.1v.2c0-.1 0-.2-.1-.3z" class="AR"/><path d="M64.6 34.5c0-.1-.1-.1 0-.2l.2.2c-.1.1-.1 0-.2 0z" class="Ao"/><path d="M47.3 58.5h.2s0 .1-.1.1-.1-.1-.1-.1z" class="AQ"/><path d="M64.8 40.5c.2 0 .2 0 .2.2-.2 0-.2-.1-.2-.2z" class="AY"/><path d="M49 61.6c.2 0 .1.1.1.2-.1 0-.1-.1-.1-.2z" class="Af"/><path d="M57 33.5c0 .2 0 .2-.2.1.1-.1.2-.1.2-.1z" class="Ad"/><path d="M64.5 34.3c0-.1-.2-.1-.1-.2.1.1.1.1.1.2z" class="Ao"/><path d="M54.3 44c0 .1-.1.2-.2.2l.2-.2z" class="Au"/><path d="M54.8 44.8c0-.1.1-.2.2-.2l-.2.2z" class="Ab"/><path d="M49.5 62.1c0 .1.1.1.2.1-.1 0-.2 0-.2-.1z" class="Af"/><path d="M46.1 38.2c.1 0 .1 0 .2-.1v.2c-.1 0-.2-.1-.2-.1z" class="AT"/><path d="M53.6 44.8c0 .2 0 .1-.1.1 0 0 0-.1.1-.1z" class="Au"/><path d="M54.5 45.3c-.1-.1 0-.2.1-.2 0 0 0 .1-.1.2z" class="Ab"/><path d="M56.7 61c0 .1.1.2-.1.2.1 0 .1-.1.1-.2z" class="AW"/><path d="M49 62.9c0 .1-.1.2-.2.1.1 0 .1-.1.2-.1z" class="AT"/><path d="M53.8 51.6c0 .1 0 .1 0 0-.1.1-.1 0-.2-.1.1.1.1.1.2.1z" class="AR"/><path d="M46.7 40.7c-.1-.1.1-.1.1-.2 0 .1 0 .1-.1.2z" class="AQ"/><path d="M51.7 59.9s-.2.1-.1-.1c0 .1.1.1.1.1z" class="Ag"/><path d="M63.7 33.2h-.2c0-.1 0-.1.2 0-.1-.1-.1-.1 0 0z" class="AZ"/><path d="M50.5 60.5s.2-.1.1.1l-.1-.1z" class="AQ"/><path d="M51.6 59.8c-.1 0-.2-.1-.2-.1.1 0 .1.1.2.1z" class="Ag"/><path d="M51.4 32.8c0 .1-.1.1-.2.1.1 0 .2-.1.2-.1z" class="AU"/><path d="M50.5 37.3s-.1.1-.1 0c-.1 0 0-.1.1 0 0-.1 0-.1 0 0z" class="Az"/><path d="M50.1 35.5c.2 0 .1.1.1.1-.1 0-.1 0-.1-.1z" class="Am"/><path d="M46.9 40.4c-.1-.1 0-.1.1-.1 0 .1-.1.1-.1.1z" class="AQ"/><path d="M49.2 62c.1 0 .1 0 .1.1 0 0 0-.1-.1-.1z" class="Af"/><path d="M45.5 37.5c.1 0 .1.1.1.2-.1-.1-.1-.1-.1-.2z" class="AT"/><path d="M50.6 37.4c-.1 0-.1-.1-.1-.1.1 0 .1.1.1.1z" class="Az"/><path d="M64.6 40.4c.1 0 .1.1.1.2 0-.1 0-.1-.1-.2z" class="AY"/><path d="M57.1 60.3c0 .1 0 .1-.1.1 0-.1 0-.1.1-.1z" class="AW"/><path d="M51.6 32.7c0 .1-.1.1-.1.1s0-.1.1-.1z" class="AU"/><path d="M56.8 60.6c0 .1.1.1 0 0 0 .1 0 .1-.1.1.1 0 .1 0 .1-.1zm-.1.3s.1.1 0 .2v-.2z" class="AW"/><path d="M54.7 45c0-.1 0-.1.1-.1l-.1.1z" class="Ab"/><path d="M51.2 33c0 .1-.1.1-.1.1 0-.1 0-.1.1-.1z" class="AU"/><path d="M56.7 61.3v.2c-.1-.1-.1-.2 0-.2z" class="AW"/><path d="M49.3 62.9c-.1.1-.1 0-.2 0 .1-.1.2 0 .2 0z" class="AT"/><path d="M63.8 33.4c-.1 0-.1-.1-.1-.1.1 0 .1 0 .1.1z" class="AZ"/><path d="M50.4 44c.1 0 .1 0 .1.1l-.1-.1z" class="AX"/><path d="M47.4 58.6c.1 0 .1.1.1.1l-.1-.1z" class="AQ"/><path d="M56.8 33.9c.1 0 .1.1.1.1s0-.1-.1-.1z" class="Ad"/><path d="M64.4 34.1c-.1 0-.1-.1-.1-.1.1 0 .1 0 .1.1z" class="Ao"/><path d="M52 60.2c-.1 0-.1 0-.1-.1 0 0 .1 0 .1.1z" class="Ag"/><path d="M53.3 31.6l-.1-.1c.1 0 .1 0 .1.1z" class="BA"/><path d="M54.1 62.3v.1c-.1 0-.1-.1 0-.1-.1 0-.1 0 0 0z" class="AR"/><path d="M63.7 33.3c-.1 0-.1 0-.1-.1.1 0 .1 0 .1.1z" class="AZ"/><path d="M58.7 33c0 .1 0 .1 0 0 0 .1-.1.1-.1 0h.1z" class="AV"/><path d="M63.5 33.2s0 .1 0 0z" class="AZ"/><path d="M49.2 62.9c0 .1-.1 0-.1 0h.1z" class="AT"/><path d="M50.8 44.4c.1 0 0 .1 0 .1v-.1z" class="AX"/><path d="M49.2 61.9c0 .1 0 0 0 0z" class="Af"/><path d="M59.3 60c0 .1 0 .1-.1.1.1 0 .1-.1.1-.1z" class="AV"/><path d="M54.6 45.1c0-.1 0-.1 0 0 .1-.1.1 0 0 0z" class="Ab"/><path d="M53.2 31.5s0 .1 0 0z" class="BA"/><path d="M51 45.1c0 .1 0 .1 0 0-.1.1-.1 0 0 0-.1 0-.1 0 0 0z" class="AX"/><path d="M45.4 56.3z" class="An"/><path d="M46.8 56.3s-.1 0 0 0c0-.1 0-.1 0 0z" class="AU"/><path d="M45.4 56.4s0-.1 0 0z" class="An"/><path d="M55.4 44.2z" class="Ab"/><path d="M64 33.6z" class="AZ"/><path d="M61.8 52.5c0-.1.1-.1 0 0z" class="Aj"/><path d="M45.9 38.1z" class="AT"/><g class="AR"><path d="M53.9 62.1z"/><path d="M54 62.2z"/><path d="M54.1 62.4c0 .1 0 0 0 0zm.1.1c-.1.1-.1 0 0 0-.1 0-.1 0 0 0z"/></g><path d="M45.5 56.1V56c.1 0 0 .1 0 .1z" class="An"/><path d="M56.8 60.8z" class="AW"/><path d="M55.3 44.3c0-.1.1-.1 0 0z" class="Ab"/><path d="M54.5 63.1s0 .1 0 0c0 .1 0 .1 0 0z" class="AR"/><path d="M56.5 63.8z" class="AQ"/><use xlink:href="#B" class="AR"/><path d="M56.9 60.5c0 .1 0 .1 0 0-.1.1 0 .1 0 0z" class="AW"/><path d="M45.5 56.2z" class="An"/><use xlink:href="#B" x="3.6" y="9.4" class="AW"/><path d="M51.2 61s.1.1 0 0c0 .1 0 .1 0 0z" class="AQ"/><path d="M61.2 35.4z" class="Ae"/><path d="M64.6 40.3s0 .1 0 0c0 .1 0 0 0 0z" class="AY"/><path d="M46.9 56.4z" class="AU"/><path d="M51.8 60c-.1 0-.1 0 0 0-.1-.1-.1 0 0 0z" class="Ag"/><path d="M59.4 59.9c0 .1 0 .1 0 0 0 .1 0 0 0 0z" class="AV"/><path d="M53.1 31.6z" class="BA"/><path d="M51.8 60z" class="Ag"/><path d="M59.4 60c-.1 0 0 0 0 0z" class="AV"/><path d="M51.9 60.1c-.1 0-.1-.1 0 0-.1-.1-.1-.1 0 0z" class="Ag"/><g class="AU"><path d="M51.6 32.7z"/><path d="M51.2 32.9c0 .1 0 .1 0 0 0 .1 0 0 0 0z"/></g><path d="M57.1 60.2z" class="AW"/><path d="M59 60.3c0 .1 0 .1 0 0 0 .1 0 0 0 0z" class="Al"/><path d="M57 60.4c-.1 0 0 0 0 0z" class="AW"/><path d="M59 60.4s-.1 0 0 0c-.1 0-.1 0 0 0z" class="Al"/><path d="M59 33.3z" class="AV"/><path d="M50.5 60.5z" class="AQ"/><path d="M63.9 33.4s-.1 0 0 0z" class="AZ"/><path d="M57.1 33.5s-.1 0 0 0c-.1 0 0 0 0 0z" class="Ad"/><g class="AZ"><path d="M63.9 33.5z"/><path d="M64 33.5s-.1 0 0 0z"/></g><path d="M50.4 33.6z" class="Ay"/><path d="M64.3 34c0-.1 0-.1 0 0 0-.1 0-.1 0 0z" class="Ao"/><path d="M56.9 34c.1.1 0 0 0 0z" class="Ad"/><g class="Af"><path d="M49.1 61.8s0 .1 0 0c0 .1 0 .1 0 0z"/><path d="M49.4 62.1z"/></g><path d="M65 34.8z" class="Av"/><path d="M50.2 35.6s0 .1 0 0c0 .1 0 .1 0 0z" class="Am"/><path d="M60.9 35.8c0-.1 0-.1 0 0 0-.1 0 0 0 0z" class="Ae"/><g class="Am"><path d="M50.4 35.9c.1.1 0 0 0 0z"/><path d="M50.5 36z"/></g><g class="Au"><use xlink:href="#B" x="0.3" y="-6.3"/><path d="M53.6 44.7z"/></g><g class="Az"><path d="M50.4 37.2c-.1-.1-.1-.1 0 0-.1-.1 0-.1 0 0z"/><path d="M50.4 37.2z"/></g><g class="AT"><path d="M45.5 37.7z"/><path d="M46 38.1c0 .1 0 .1 0 0z"/></g><path d="M64.4 39.8c-.1 0 0 0 0 0zm-8 24.1c0-.1.1-.1 0 0z" class="AQ"/><path d="M53.7 67c-.1 0 0 0 0 0z" class="Ak"/><path d="M64.5 40.3z" class="AQ"/><path d="M45.9 41.5z" class="AY"/><path d="M46.4 56.1s0 .1 0 0c0 .1 0 .1 0 0 0 .1 0 0 0 0z" class="AU"/><path d="M46.7 40.7z" class="AQ"/><g class="AU"><path d="M46.7 56.2z"/><path d="M46.8 56.3z"/><path d="M46.9 56.4s0-.1 0 0c0-.1 0-.1 0 0z"/></g><g class="AQ"><path d="M46.9 40.5z"/><path d="M47.4 58.6z"/></g><g class="Aj"><path d="M39.4 43c.6.1 1 .3 1.3.8.2.4.3.7.3 1.1 0 .3.1.6 0 .9 0 .1 0 .2.1.2h.3c.1-.1.1-.1.1-.2.1-.3.1-.6.1-.9s-.1-.5-.2-.8 0-.6.2-.8c.1-.2.3-.3.5-.4.1-.1.2 0 .2 0 .2.2.3.4.3.7 0 .2 0 .5-.1.7s-.2.5-.3.7-.1.4-.1.7c0 .2.1.3.2.4.1 0 .4-.1.4-.3.1-.2.2-.4.2-.6l.3-.9c.1-.4.4-.6.8-.6.2 0 .4 0 .5.1s0 .3-.1.5c-.2 1-.7 1.9-1.3 2.7l-.1.1c-.5.3-.9.6-1.5.7-.5.1-.9-.1-1.2-.5s-.5-.8-.6-1.2l-.5-2.6c.2-.3.2-.4.2-.5z"/><path d="M38.8 48.8c.8-.2 1.4.1 1.8.6.3.4.5.9.7 1.4.1.2.1.2.2.2.2 0 .3-.1.3-.3a1.69 1.69 0 0 0-.3-1c-.1-.2-.3-.4-.4-.6-.2-.2-.2-.5-.1-.8 0-.2.2-.4.3-.6 0-.1.1-.1.2 0a1.36 1.36 0 0 1 .7 1.1v1.1c0 .2.1.4.2.6s.2.2.4.1c.1-.1.2-.2.2-.4v-1.6c0-.4.2-.7.6-.9.1 0 .3-.1.4-.1s.1 0 .2.1c0 .1 0 .3.1.4.1 1 0 1.9-.3 2.9-.1.2-.2.4-.4.5-.2.2-.4.4-.7.6-.6.4-1.2.3-1.8-.2-.3-.2-.5-.5-.7-.8-.5-.7-.9-1.5-1.4-2.2-.1 0-.2 0-.2-.1z"/></g><path d="M45.1 59l1 .3c.3.1.6.3.8.5.1.2.1.3 0 .4s-.1.1-.2 0-.3-.1-.4-.2c-.4-.2-.8-.3-1.2-.4V59z" fill="#2f3192"/><g class="Aj"><path d="M72.1 49.4c-.3.6-.7 1.1-1 1.7-.1.2-.3.4-.5.6-.2.1-.3.3-.5.4-.4.2-.8.2-1.2 0-.5-.3-.8-.6-1.1-1.1-.1-.1-.1-.3-.2-.5-.3-1-.3-2.2-.1-3.1.3 0 .6.1.8.3s.3.4.3.6v1.6c0 .2.1.3.2.4.2.1.3.1.4-.1s.2-.4.2-.7v-1.1c0-.1 0-.2.1-.3.1 0 .1-.1.1-.2v-.1l.1-.1s.1 0 .1-.1c0 0 .1 0 .1-.1h.1c.1-.1.2 0 .2 0 .2.2.3.4.3.7 0 .2 0 .4-.1.6-.2.2-.3.5-.5.7-.2.3-.3.6-.3.9 0 .2.1.3.3.3.1 0 .2 0 .2-.1.1-.3.2-.6.4-.9.1-.3.3-.6.6-.9.2-.2.5-.4.8-.4h.6c.1 0 .2 0 .1.1-.1 0-.1.1-.1.2v.1c-.1.1-.1.1-.1.2-.3.2-.3.3-.3.4z"/><path d="M71.5 42.9c.2-.1.3-.1.6-.1 0 .2-.1.5-.1.7l-.5 2.3c-.1.5-.3.9-.7 1.2s-.8.4-1.3.3c-.4-.1-.8-.3-1.2-.6l-.1-.1c-.7-.9-1.1-1.9-1.4-3v-.1a1.1 1.1 0 0 1 .8 0c.3.1.5.2.6.5l.6 1.5c.1.2.2.3.3.3.2.1.3 0 .3-.2v-.7c-.1-.3-.3-.6-.4-.9-.1-.2-.1-.4 0-.6.1-.1.1-.3.2-.4.1-.2.2-.2.3-.1s.2.1.3.2v.1h.1s0 .1.1.1c0 .1.1.2.1.2.1.1.1.3 0 .4-.1.2-.1.5-.2.7-.1.3-.1.6 0 .9 0 .1.1.2.1.3.1.1.3.1.4.1s.1-.1.1-.2c0-.3 0-.7.1-1 0-.3.1-.6.2-.9.1 0 .1 0 .1-.1 0 0 0-.1.1-.1h.1c0-.1.1-.1.2-.2h.2s.1 0 .1-.1c-.3-.3-.2-.3-.1-.4-.1 0 0 0 0 0zm-1 12.3c-.6.4-1.1.9-1.7 1.3h-.1c-.1 0-.2.1-.3.2 0 0-.1 0-.1.1-.1 0-.2-.1-.2.1H68c-.1 0-.3.1-.4.1-.5.1-1 0-1.4-.4-.3-.3-.4-.6-.5-1-.1-.3-.1-.7-.1-1 .1-.9.4-1.7.9-2.5v-.2c.1 0 .1-.1.2-.1.1.1.3.3.5.4v.1s0 .1.1.1c.1.2.1.4 0 .6l-.6 1.5c-.1.2 0 .3 0 .4.1.2.2.2.4.1s.3-.3.4-.6c.1-.2.1-.4.2-.6.1-.1.1-.2.1-.4.1-.1.1-.2.2-.3h.2c.2 0 .3-.1.4-.2.4-.2.5-.1.6.3 0 .2 0 .4-.1.6s-.1.3-.3.4-.4.3-.6.5c-.3.2-.4.4-.6.7 0 .1-.1.1-.1.2 0 .2.1.3.2.4.1 0 .1 0 .2-.1l.6-.6s.1 0 .1-.1c.1 0 .2-.2.3-.2h.1s0-.1.1-.1c0 0 .2 0 .1-.1.5-.3 1-.4 1.6-.1.1.1.1.2 0 .3 0 0-.1 0 0 0 0 .1-.1.1-.1.1 0-.1-.1 0-.2.1 0-.1 0 0 0 0z"/></g><path d="M64.2 59.1c-.1 0-.2 0-.3-.1 0-.1-.1-.3 0-.4l.1-.1 1.2-1.3v1.1c0 .1-.1.1-.1.2s-.1.1-.2.2-.1.2-.3.3h-.1c0 .1-.1.1-.2.1 0-.1-.1-.1-.1 0z" fill="#2f3192"/><path d="M65.2 59.7l-.6.3c-.1 0-.2.1-.2 0-.1-.1-.1-.2-.1-.3 0 0 0-.1.1-.1.2-.2.5-.4.8-.5v.6z" fill="#303291"/><path d="M69.7 42.9c-.1 0-.2 0-.3-.1 0-.1-.1 0-.2 0s-.1 0-.1.1c-.1 0-.1 0-.1.1s-.1.2-.2.2c0-.3.1-.5.3-.7.1-.1.1-.1.2 0 .1.2.3.3.4.4z" class="Ap"/><path d="M66.7 39.8c.1 0 .2-.1.2.1 0 0 0 .1.1.1s.1 0 .1.1v.1c.2 0 .2.2.2.3v.1c-.1-.4-.4-.6-.6-.8z" class="Aq"/><path d="M70.8 54.8c.1-.1.1-.2.1-.3.1 0 .2.1.3.1-.1.1-.3.2-.4.3-.1 0 0 0 0-.1z" class="AS"/><path d="M66.3 40.4c-.2-.1-.4-.1-.4-.4.1.1.2.3.4.4z" class="Ar"/><path d="M68.7 52.8s0 .1 0 0c-.1.3-.1.3-.4.2.1 0 .2-.1.4-.2z" class="BB"/><path d="M67.3 52.2c-.2-.1-.4-.2-.5-.4.2.1.4.3.5.4z" class="As"/><path d="M65.5 41.3c.1 0 .1-.1.1 0s.1.2.2.2v.1l-.3-.3z" class="Aw"/><path d="M66.5 39.6c.2-.1.2-.1.2.2l-.2-.2z" class="Aq"/><path d="M68.5 56.7c.1-.2.1-.2.3-.2-.1.1-.2.1-.3.2zm-.8.3c.1-.1.3-.2.4-.1-.1 0-.3.1-.4.1z" class="Ah"/><path d="M72.4 48.9v-.2c0-.1.1-.1.2-.1-.1.1-.1.2-.2.3z" class="Aa"/><path d="M71.1 43.1c0 .1-.2.2-.1.3h-.1c0-.1.1-.2.2-.3z" class="Ac"/><path d="M69 54.9c-.1.1-.1.3-.3.2.1-.1.2-.2.3-.2z" class="BC"/><path d="M68 53.4c0 .1-.1.2 0 .3 0 .1-.1 0-.1 0s.1-.1.1-.3zm.2-.2c0 .1-.1.2-.2.3 0-.2.1-.3.2-.3z" class="BB"/><path d="M65.6 39.7c-.1 0-.3-.1-.3-.2.1.1.2.1.3.2z" class="Ar"/><path d="M69 38.1c-.1-.1-.1-.3-.1-.4.1.1.1.2.1.4zm3.4 10.4h-.5c.1-.1.3-.1.5 0z" class="Aa"/><path d="M69.9 43.3c-.2-.1-.2-.1-.1-.2.1 0 .1.1.1.2z" class="Ap"/><path d="M72.2 49.2c0-.1 0-.1.1-.2 0 0 0 .1-.1.2z" class="Aa"/><path d="M70.1 47.5h-.2c.2-.1.2-.1.2 0z" class="AS"/><path d="M68.7 37.3c0 .1-.2.2-.3.2.1-.1.2-.1.3-.2zm3.4 12.1c0-.1 0-.2.1-.2 0 0-.1.1-.1.2z" class="Aa"/><path d="M65.3 35.3s-.1.1-.1 0c-.1-.1 0-.1 0-.2.1.1.1.1.1.2z" class="Av"/><path d="M70.8 43.5c.1.1.1.1 0 .1h-.1s0-.1.1-.1z" class="Ac"/><path d="M68.2 56.8c0-.1 0-.1.2-.1-.1.1-.1.1-.2.1z" class="Ah"/><path d="M66.2 39.2c.1.1.1.1.1.2-.1 0-.1-.1-.1-.2z" class="Aq"/><path d="M66.9 51.8c-.1 0-.1 0-.2.1 0-.2 0-.2.2-.1z" class="As"/><path d="M70.6 55.1c0-.1.1-.2.2-.1-.1.1-.2.1-.2.1z" class="AS"/><path d="M67.6 59.7c-.1 0-.2-.1-.2-.2l.2.2z" class="Ai"/><path d="M72.5 48.6c0-.1-.1-.1-.1-.1h.2c0 .1 0 .1-.1.1z" class="Aa"/><g class="BC"><path d="M69.3 54.6c0 .2-.1.1-.1.1l.1-.1z"/><path d="M69.2 54.7v.1s-.1.1-.2 0c0 0 .1 0 .2-.1z"/></g><path d="M69.8 47.5c0 .1-.1.1-.1.1l.1-.1z" class="AS"/><path d="M67.9 60.1V60v.1z" class="Ai"/><path d="M69.4 47.9c0 .1 0 .1-.1.2.1 0 .1-.1.1-.2z" class="AS"/><path d="M65.3 41.1h.2c-.1.1-.2.1-.2 0z" class="Aw"/><path d="M68.9 37.4s-.1-.1 0 0c0-.1 0-.1 0 0zm0 .2c-.1-.1 0-.1 0-.2v.2z" class="Aa"/><path d="M69.6 47.8c0 .1 0 .1-.1.1 0-.1 0-.1.1-.1z" class="AS"/><path d="M66.3 39.4c.1 0 .1.1 0 0 .1.1.1.1 0 0z" class="Aq"/><path d="M67.7 59.8s-.1 0 0 0z" class="Ai"/><path d="M69.7 43s0-.1 0 0c0-.1.1-.1 0 0z" class="Ap"/><path d="M69.7 47.6c0 .1 0 .1 0 0-.1.1 0 0 0 0z" class="AS"/><path d="M67.7 60.2c0-.1.1-.1.2 0h-.2z" class="Ai"/><path d="M67.4 52.4s0-.1 0 0c0-.1 0-.1 0 0z" class="As"/><path d="M68.1 56.8z" class="Ah"/><path d="M71.5 42.9s-.1 0 0 0c-.1 0-.1 0 0 0zm-.2.1s-.1 0 0 0c-.1 0 0 0 0 0z" class="Ac"/><path d="M69.8 43.1s0-.1 0 0c0-.1 0-.1 0 0z" class="Ap"/><path d="M71.4 42.9c0 .1-.1.1 0 0-.1 0-.1 0 0 0z" class="Ac"/><path d="M68.4 56.7z" class="Ah"/><path d="M70.8 43.4s0 .1 0 0c0 .1 0 0 0 0z" class="Ac"/><path d="M69.9 47.5z" class="AS"/><g class="Ai"><path d="M67.8 59.9s-.1 0 0 0c0-.1 0 0 0 0z"/><path d="M67.8 59.9z"/><path d="M67.9 60c-.1 0-.1 0 0 0-.1-.1 0 0 0 0z"/></g><path d="M65.4 35.3c-.1 0-.1 0 0 0z" class="Av"/><path d="M68.8 37.3c-.1 0 0 0 0 0z" class="Aa"/><g class="Aq"><path d="M66.4 39.5c0 .1 0 0 0 0z"/><path d="M66.5 39.6z"/></g><g class="Ar"><path d="M65.6 39.8c0-.1 0 0 0 0z"/><path d="M65.7 39.8z"/><path d="M65.7 39.9c0-.1 0 0 0 0z"/></g><g class="Ac"><path d="M71.1 43.1z"/><path d="M71.2 43c0 .1 0 .1 0 0z"/></g><path d="M65.8 39.9s-.1 0 0 0zm0 .1c0-.1 0 0 0 0zm.1 0s-.1 0 0 0z" class="Ar"/><g class="BB"><path d="M68.3 53.1z"/><path d="M68.3 53.1c0 .1 0 .1 0 0-.1 0 0 0 0 0z"/></g><path d="M65.5 41.2s0 .1 0 0c-.1.1-.1.1 0 0-.1 0-.1 0 0 0z" class="Aw"/><path d="M70.5 55.2c0-.1 0-.1 0 0z" class="AS"/><path d="M72.4 48.9z" class="Aa"/><path d="M68.7 56.5c.1-.1.1-.1 0 0z" class="Ah"/><path d="M69.5 47.9c-.1 0 0 0 0 0z" class="AS"/><path d="M66.7 51.9s-.1.1 0 0c-.1 0-.1 0 0 0z" class="As"/><path d="M66.3 40.5c0-.1 0 0 0 0z" class="Ar"/><path d="M67.4 52.3c-.1 0-.1 0 0 0-.1-.1 0 0 0 0z" class="As"/><path d="M69.6 47.7c0 .1 0 .1 0 0z" class="AS"/><path d="M37.8 90.8c-.2-.3-.2-.3 0-.6a6.57 6.57 0 0 1 1.2-1.7c.2-.2.4-.3.7-.4.1-.1.2-.1.4 0l3.8 1.3 8.3 2.9c1 .4 2 .4 3.1.3.8-.1 1.5-.4 2.3-.7l5.9-2.1 4.7-1.7c.2-.1.3 0 .5 0a4.62 4.62 0 0 1 1.7 1.7c.3.5.4 1 .5 1.5.2 1.2.3 2.3.4 3.5 0 .3 0 .3-.3.4l-7.5 2.3-6.3 1.9c-.5.1-.9.3-1.4.4a6.81 6.81 0 0 1-4-.3c-.5-.2-1-.3-1.6-.5l-3.8-1.1-6.2-1.8-2.7-.8c-.1 0-.2 0-.2-.3 0-.4 0-.9.1-1.3l.2-2.6V91c0-.1 0-.3.2-.3-.1.2 0 .1 0 .1zm-10.6-7c.3.1.5.2.8.4l2.1 1.1c.4.2.8.3 1.3.4a8.33 8.33 0 0 0 2.2.3c.2 0 .2 0 .2.2l.1 2.6.1 2.8v.1c0 .1 0 .1-.1.2h-1.8c-.8 0-1.6-.2-2.4-.4-1.1-.3-2.1-.7-2.9-1.5-.3-.3-.6-.5-.8-.8-.1-.1-.1-.1-.1-.2l1.5-5c-.2-.1-.2-.1-.2-.2zm54.1.2c.1.5.3 1 .4 1.4l1.1 3.6c0 .1 0 .2-.1.4-.6.8-1.4 1.3-2.3 1.7-.8.4-1.7.6-2.7.8l-2.1.2h-.9c-.2 0-.2 0-.2-.2 0-.6 0-1.3.1-1.9l.1-2.2v-1.4c0-.1 0-.2.2-.2.4 0 .7-.1 1.1-.1l1.7-.3c.5-.1.9-.4 1.4-.6l1.9-1c.1-.2.2-.2.3-.2zm-7.1 6c-1.1-.2-2.2-.2-3.2.6 0-.1-.1-.2-.1-.2-.2-.6-.5-1-.9-1.5s-.9-.8-1.4-1.1c-.1 0-.1-.1-.1-.1-.1-.7 0-1.3.3-1.9s.8-.9 1.4-1.1c.7-.2 1.4-.3 2.1-.2.7 0 1.3.1 2 .3.2 0 .2 0 .2.2l-.1 2.4v2.4l-.2.2zM40 87.6c-.2-.1-.3 0-.5 0-.7.3-1.3.8-1.8 1.5l-.5.8c0 .1-.1.2-.1.3-.4-.3-.9-.4-1.4-.5-.5 0-1 0-1.5.1V89l-.1-3v-1.3c0-.1 0-.2.1-.2 1-.2 2-.4 3.1-.3a3.08 3.08 0 0 1 1.3.3c.9.4 1.4 1 1.5 2v.9c0 .1 0 .2-.1.2zm-9.6-2.7c-.5-.2-.9-.5-1.4-.7-.5-.3-1-.6-1.6-.8-.1 0-.1-.1-.1-.2 0-.4.1-.9.3-1.2.3-.6.9-.9 1.6-.8s1.3.4 1.9.8c.1.1.1.1.1.2-.1.5-.3 1-.4 1.5l-.3 1c-.1.1-.1.1-.1.2zm47.8.1l-.3-.8-.6-1.9c0-.1 0-.2.1-.2.6-.3 1.1-.6 1.7-.7.4-.1.8-.1 1.1.1.4.2.6.6.7 1 .1.3.1.6.2.9 0 .1 0 .1-.1.1l-2.5 1.3c0 .1-.2.1-.3.2z" fill="#fff"/><path d="M40.4 87.7s-.1 0 0 0h-.2.2z" fill="#aaa"/><g class="AX"><path d="M51.1 45.1z"/><path d="M51 45.1z"/></g><g class="AR"><path d="M53.8 51.6h.1zm-.1 0c0-.1.1-.1 0 0 .1-.1.1-.1 0 0z"/><path d="M53.6 51.3z"/></g><path d="M45.7 41.6v-.1z" class="AY"/><path d="M46.5 40.8c0-.1 0-.1 0 0z" class="AQ"/><g class="AR"><path d="M64.6 58.8l.3-.3v.1c0 .2 0 .3-.3.2zm.3-.3c0-.1.1-.1.2-.2 0 .2 0 .2-.2.2zm-.7.6c.1 0 .2-.1.2-.1-.1.1-.1.1-.2.1zm.2-.1c0-.1.1-.1.2-.1 0 .1-.1.1-.2.1z"/><path d="M64.6 58.9z"/></g><path d="M67.8 59.9s0 .1 0 0c-.1.1 0 0 0 0z" class="Ai"/><path d="M64.9 58.6h.1zm-.3.3c0-.1 0-.1 0 0 0-.1 0 0 0 0z" class="AR"/><path d="M46.4 56.2z" class="AU"/><path d="M59.7 59.9z" class="AV"/><path d="M58.9 60.6z" class="Al"/><path d="M63.9 33.5z" class="AZ"/><g class="Ao"><path d="M64.3 34.1c-.1 0-.1 0 0 0-.1 0-.1 0 0 0z"/><path d="M64.3 34.1z"/><path d="M64.5 34.3z"/><path d="M64.6 34.5z"/></g><path d="M61.1 35.4c0-.1 0-.1 0 0 0-.1 0 0 0 0z" class="Ae"/><g class="AV"><path d="M58.8 33c-.1 0-.1 0 0 0z"/><path d="M58.6 32.9z"/><path d="M58.7 33z"/></g><path d="M60.9 35.6z" class="Ae"/><path d="M49.5 62.1c0-.1 0-.1 0 0z" class="Af"/><path d="M49.2 63h-.1zm0 0v.1z" class="AT"/><path d="M65.8 41.5z" class="Aw"/><path d="M65.5 41.2c-.1 0-.1 0 0 0-.1 0-.1 0 0 0z" class="AY"/><path d="M54.1 62.2c.1.1 0 .1 0 0 0 .1 0 .1 0 0z" class="AR"/><path d="M56.9 60.7z" class="AW"/><path d="M54.2 62.5z" class="AR"/><path d="M56.7 63.5s-.1 0 0 0c-.1 0 0 0 0 0z" class="AQ"/><g class="Aj"><path d="M63.7 51.7c-.1.1-.1.1 0 0-.1.1-.2.1-.2 0 0 0 0-.1.2 0-.1-.1-.1 0 0 0z"/><path d="M58.3 32.6z"/></g><path d="M69.6 47.8z" class="AS"/><path d="M71 43.4z" class="Ac"/><path d="M69.7 43v.1zm-.1 0v.1-.1zm.1 0s-.1 0 0 0c-.1 0 0 0 0 0zm-.6-.2v.1z" class="Ap"/><path d="M69.1 54.9z" class="BC"/><path d="M68.1 56.7z" class="Ah"/><path d="M70.8 54.8z" class="AS"/><path d="M44.2 94.8c-.1-.3-.2-.5-.2-.8 0-.4.3-.6.7-.5.2.1.4.1.7.2.1 0 .1 0 .2-.1v-.1c.1-.2 0-.2-.1-.3-.3-.2-.6-.3-.9-.4-.4-.1-.9-.3-1.3-.4-.1 0-.1 0-.2.1 0 .1-.1.3-.1.4.6.1.9.5.8 1.1-.1.3-.2.4-.5.5-.1 0-.2 0-.2-.1s-.1-.2-.1-.3h.4c.3-.1.3-.4.1-.5-.1-.1-.5-.2-.6-.1-.1 0-.1.1-.1.2l-.3.9c0 .1 0 .1-.1.2-.2-.3-.4-.5-.2-.8 0-.1-.1-.1-.1-.1-.2 0-.4-.1-.6-.3-.1-.2-.2-.5-.2-.7s.1-.3.3-.3h.3c.3.1.3.2.3.5-.1 0-.3-.1-.4-.1s-.2 0-.3.1 0 .3.1.3c.1.1.5.2.7.1.1 0 .1-.1.1-.2.1-.3.1-.5.2-.8 0-.1 0-.2-.1-.2l-.9-.3c-.1 0-.2 0-.3-.2 0-.1-.2-.1-.3-.1-.1.1-.1.1-.1.2-.1.3-.2.5-.2.8 0 .1-.1.3-.3.3-.1 0-.2 0-.2-.1-.1-.2-.1-.2 0-.3 0 0 .1-.1.1-.2.1-.3.1-.5.2-.8 0-.1 0-.2-.1-.2-.2-.1-.4-.1-.5-.2.1.2.1.3.1.4-.1.2-.1.5-.2.7s0 .3.1.5.3.3.4.5c.1.1.2.3.3.4.1.2-.1.4-.3.4-.1 0-.1 0-.1-.1s-.1-.2-.1-.3c.2-.1.3-.1.2-.3s-.3-.3-.4-.5c-.1-.1-.2-.3-.3-.4a.45.45 0 0 1 0-.5c.1-.3.2-.6.2-.8 0-.1 0-.1-.1-.2 0 0-.1 0-.1-.1s0-.2.1-.2h.2c.5.2 1 .3 1.5.5.1.1.3.1.4.2 0 0 .1 0 .1.1l3.3 1.1c.3.1.5.2.7.3l.8.3.9.3c.2.1.2.1.1.3 0 .1-.1.1-.1.1-.1 0-.1 0-.2-.1-.1 0-.1 0-.2.1-.2.6-.3 1.2-.5 1.8 0 .1 0 .2-.1.3-.1-.2-.2-.3-.2-.4v-.2c.1-.5.3-1 .4-1.4.1-.3.1-.3-.2-.4-.1 0-.2-.1-.4-.1-.1 0-.1 0-.2.1l-.3 1.1-.3 1c-.1-.1-.2-.3-.3-.5V95c.1-.2.1-.5.2-.7 0-.1 0-.2-.1-.2-.2 0-.3-.1-.5-.2-.3-.1-.5 0-.5.4v.8h-.1v-.2c.2 0 .2 0 .1-.1zm20.6-1.2c-.1-.1-.3-.1-.4-.3 0-.1-.1-.1 0-.2s.1-.1.2 0c.1 0 .2.1.3 0s0-.2 0-.3c0-.2-.1-.3-.1-.5 0-.1-.1-.1-.2-.1l-.9.3c-.1 0-.1.1-.1.1.1.3.1.5.2.8l.3 1.2v.2a.76.76 0 0 1-.4-.2c-.1 0-.1-.1-.1-.2-.1-.5-.3-1-.4-1.5-.1-.2-.1-.2-.3-.1-.1.1-.3.1-.4.2-.1 0-.1.1-.1.2l.3 1.2.3 1c-.2-.1-.3-.2-.4-.2s-.1-.1-.1-.2c-.1-.5-.3-1-.4-1.5-.1-.2-.1-.2-.2-.1-.1 0-.2 0-.2-.1l-.1-.1c.1-.1.2-.1.3-.2.2-.1.5-.2.7-.2.9-.4 1.8-.6 2.7-1 .4-.1.7-.3 1.1-.4l.9-.3c.5-.2.9-.4 1.4-.5.1 0 .1-.1.2 0s.1.2.1.3v.1h-.1c-.1.1-.3 0-.3.1s0 .2.1.3c.2.6.3 1.2.5 1.8v.1c-.1-.1-.3-.1-.4-.2-.1 0-.1-.1-.1-.2-.1-.2-.1-.5-.2-.7-.2.1-.5.2-.7.2-.1 0-.1.1-.1.1 0 .1.1.2.1.3s-.1.2-.2.1c-.2-.1-.3-.2-.4-.3-.2-.3-.2-.5.1-.6.2-.1.4-.1.6-.2.1 0 .3 0 .4-.2.1-.1 0-.2-.1-.4-.1-.3-.1-.3-.4-.2-.1.1-.2.1-.3.1l-1 .3c-.3.1-.3.1-.2.3.2.6.3 1.2.5 1.8 0 .1.1.1 0 .2-.1-.1-.3-.1-.4-.2-.1 0-.1-.1-.1-.2 0-.2-.1-.3-.1-.5-.3.3-.5.1-.8-.1 0-.1.1-.1.2-.1.3-.1.4-.2.3-.5-.1-.4-.1-.4-.5-.3-.1 0-.2.1-.4.1.4.3.4.7.3 1.1-.1.1-.1.2-.3.2 0 .3 0 .4-.2.4zm-11.9 3.5c-.1-.1-.2-.2-.2-.3s-.1-.1-.1-.2c0-.2.1-.2.3-.1.1 0 .1.1.1.1.1.1.2 0 .2-.1v-.7c0-.1-.1-.1-.1-.1h-.3c-.1 0-.3 0-.4-.1 0-.1-.1 0-.1.1s0 .3-.1.4l-.2 1.7v.1c-.1-.1-.2-.3-.3-.4v-.2c.1-.5.2-1.1.2-1.6v-.2c-.1 0-.2-.1-.3-.1s-.1.1-.1.1l-.6 1.6c0 .1-.1.3-.1.4-.3-.4-.2-.7 0-1.1-.3 0-.4-.2-.4-.5.1.1.1.1.2.1.2.1.4 0 .4-.2.1-.2.1-.4.2-.5 0-.1 0-.2-.1-.2-.3-.1-.3-.3-.4-.5.1-.1.1 0 .1 0 .2.1.5.2.7.3h.1c.2.1.3.1.3-.1.1-.2 0-.3-.2-.4-.1 0-.3 0-.4-.1a.55.55 0 0 1-.3-.5c0-.1.1-.2.2-.1h.2c0 .1-.1.1-.1.1 0 .1 0 .2.1.3s.2.1.3.1c.4.1.5.2.4.6v.2c.3 0 .5.2.8.2h1c.1 0 .1 0 .1.2s0 .2-.1.2h-.6v.1c.2.2.2.5.2.8v.2c0 .3-.2.4-.4.3H53c0 .1 0 .1-.1.1zm7.3-3.3s-.1 0-.1.1c-.3.1-.3.1-.2.4.2.6.3 1.2.5 1.8v.1c-.1-.1-.3-.1-.4-.2-.1 0-.1-.1-.1-.2-.1-.2-.1-.4-.2-.6 0-.1-.1-.1-.1-.1-.2.1-.4.1-.5.2-.1 0-.1.1-.1.2s.1.2.1.2c0 .1-.1.2-.2.1-.2-.1-.3-.2-.4-.3-.1-.2-.1-.3.1-.4s.3-.1.5-.2c.1 0 .2-.1.3-.1.2-.1.2-.1.1-.3 0-.1 0-.2-.1-.3-.1-.2-.1-.2-.3-.1-.4.1-.7.3-1.1.4-.1 0-.2 0-.1.1 0 .1-.1.1-.1.1-.3.1-.3.1-.2.4l.5 1.7c0 .1 0 .1.1.2-.3-.1-.5-.2-.5-.5 0-.1-.1-.2-.1-.4a.47.47 0 0 1-.6-.1h.2c.2 0 .3-.2.2-.4s-.1-.4-.2-.6c0-.1-.1-.1-.1-.1-.2.1-.4 0-.6-.2.1 0 .1-.1.2-.1l1-.3c.1 0 .2 0 .2-.2l.1-.1c.7-.2 1.3-.5 2-.7.2-.1.2-.1.2.1v.4z" fill="#ffcb05"/><path d="M61.3 95.1c-.2.1-.4 0-.6-.1-.1-.1-.1-.2-.1-.3s.2-.2.3-.1c.1 0 .1 0 .2.1s.2 0 .3-.1c0-.1.1-.1.1-.2 0-.2 0-.2-.1-.2s-.3-.1-.4-.1-.2-.1-.3-.2-.2-.3-.1-.5.2-.2.4-.3c.1 0 .3 0 .4.1.5.3.6.9.6 1.3 0 .2-.1.3-.2.4l-.1.1h-.1.1v.1s.1 0 .1.1h.1l.1.1s.1 0 .1.1h.1s.1 0 .1.1h.1s.1 0 .1.1c-.1.1-.1.1-.2 0h-.2s-.1 0-.1-.1c0 0-.1 0-.1-.1h-.1s-.1 0-.1-.1h-.1c-.2-.2-.2-.2-.3-.2z" fill="#ffcb07"/><path d="M55.3 95.4c.1-.1.3-.2.4-.3a.47.47 0 0 1 .6.1c.1.1.2.1.3.2.2.3.2.5 0 .8 0 .1.1.1.2.1.1.1.2.3.3.4.1.3-.1.6-.5.6-.2 0-.3 0-.4-.1-.2-.1-.4-.2-.6-.4l-.1-.1v-.1h.1l.1.1c.2.1.4.3.6.2.2 0 .3-.1.3-.3s0-.4-.2-.5c0 0-.1-.1-.1 0h-.1c-.3.1-.4.1-.5-.2.1 0 .2 0 .3-.1.1 0 .2-.1.3-.2s.1-.2 0-.3-.1-.2-.3-.2-.3.1-.4.2c-.2.2-.2.2-.4 0 .1.2.1.1.1.1z" fill="#ffcb09"/><path d="M49.5 95.2c.1 0 .2.1.2.1.1 0 .2.1.3.1.2 0 .2 0 .3-.2 0-.1 0-.3-.1-.4s-.2-.1-.3-.1h-.2c-.1 0-.2 0-.2-.1-.1-.3-.1-.3.2-.3s.5.2.6.5c.1.2.1.4.1.6s-.1.4-.4.4c0 .1.1.2.1.2 0 .2.1.3 0 .5-.1.3-.4.4-.7.2-.1 0-.1-.1-.2-.2-.2-.2-.2-.5-.3-.9v-.1h.1v.2c0 .2.1.3.2.4 0 .1.1.1.2.2s.3.2.4.1a.76.76 0 0 0 .2-.4c0-.1 0-.2-.1-.2 0 0-.1 0-.1-.1-.1-.1-.2-.2-.2-.3-.1-.1-.1-.2-.1-.2z" fill="#ffcb07"/><path d="M60.3 96.8c-.1 0-.2-.1-.2-.1-.1-.1-.1-.1 0-.2.2-.2.5-.2.7-.1s.4.4.3.7c0 .1-.1.2-.2.3-.2.1-.4.2-.7.2-.2 0-.5-.2-.7-.3h-.1v-.1h.1c.1.1.3.1.4.2.3.1.5 0 .7-.2l.1-.1c.1-.1 0-.3 0-.4-.1-.1-.2 0-.3.1-.1-.1-.1-.1-.1 0z" fill="#ffcc0a"/><path d="M65.4 93.2c0-.3 0-.5-.1-.8 0-.1-.1-.1-.1-.1-.1 0-.2-.1-.2-.2l.8-.3c.1 0 .1 0 .1.1.1.2.1.4.2.6v.2c-.1.1-.2.2-.4.3 0 0-.1 0-.1.1-.1 0 0 .1 0 .1-.2-.1-.2 0-.2 0z" fill="#fffffd"/><path d="M52.9 97.1s.1 0 .1-.1h.1c-.1 0-.1 0 0 .1l.6.6c0 .1.1.1.1.2.1.1.1.1 0 .2 0 .1-.1.1-.2 0-.2-.2-.3-.4-.5-.6.1-.1-.1-.3-.2-.4zm12-3.5c.1 0 .1-.2.2-.1-.1.1 0 .1 0 .1.2.1.5.2.7.4.1 0 .1.1.2.1s.1.1 0 .2c0 .1-.1.1-.2 0-.3-.3-.6-.5-.9-.7z" fill="#ffcd12"/><path d="M62 95.6c.1-.1.2 0 .2 0v.1l-.2-.1zm-.1-.2v.1c-.1 0-.1-.1-.2-.1h.2zm0-.1c-.1 0-.1 0-.1-.1 0 0 .1 0 .1.1zm-.6-.2c0-.1.1-.1.1 0h-.1z" class="At"/><g class="Ax"><path d="M44.4 95.1h.1c0 .1-.1.1-.1 0zm-.1-.4v-.1.1z"/><path d="M44.2 94.8z"/><path d="M44.4 94.8c-.1 0-.1 0 0 0zm-.2 0c.1.1.1.1 0 0 .1.1 0 .1 0 0zm.1.1s.1.1 0 .1v-.1z"/></g><path d="M61.6 95s-.1 0 0 0c-.1 0 0 0 0 0zm.1.1s-.1 0 0 0zm-.1.1c0 .1 0 .1 0 0zm.4.1c-.1 0-.1 0 0 0-.1 0 0 0 0 0zm.1.1s-.1 0 0 0zm.2.1c-.1 0-.1 0 0 0-.1-.1-.1 0 0 0z" class="At"/><path d="M44.5 95c-.1 0-.1 0 0 0z" class="Ax"/><path d="M64.8 93.6z" fill="#ffcd12"/><g class="Ax"><path d="M44.4 94.9z"/><path d="M44.5 95.1s0-.1 0 0c0-.1 0 0 0 0z"/></g><path d="M61.6 95.1c0-.1 0 0 0 0z" class="At"/><g class="Ax"><path d="M44.4 95.1z"/><path d="M44.5 95.1z"/></g><g class="At"><path d="M61.5 95.1s0 .1 0 0c0 .1 0 .1 0 0zm.3.1c-.1 0-.1-.1 0 0-.1-.1 0-.1 0 0z"/><path d="M61.5 95.2z"/><path d="M61.7 95.3z"/><path d="M61.7 95.3c0 .1 0 0 0 0zm.3.1c0-.1 0-.1 0 0 0-.1 0-.1 0 0zm.2 0s-.1 0 0 0z"/><path d="M61.9 95.5z"/><use xlink:href="#B" x="8.7" y="44.5"/><path d="M61.6 95z"/></g><path d="M61.3 94c-.1 0-.2 0-.3-.1s-.1-.2-.1-.3.1-.1.2-.2c.1 0 .1 0 .2.1s.1.3.1.4c.1.1 0 .1-.1.1z" fill="#fffef9"/><path d="M61.9 95.4z" class="At"/></svg>