<svg xmlns="http://www.w3.org/2000/svg" width="100%" height="100%" viewBox="0 0 109 109" fill-rule="evenodd" stroke-linejoin="round" stroke-miterlimit="1.41421"><circle cx="54.2" cy="54.2" r="54.2" fill="#88ba41"/><clipPath id="A"><circle cx="54.2" cy="54.2" r="54.2"/></clipPath><g clip-path="url(#A)"><path d="M83.1 20.9L20.3 83.4 55 116l49.4-21.6 7-45.2" fill-opacity=".15" fill-rule="nonzero"/></g><g fill-rule="nonzero"><path d="M56.8 10.5h.7c2 .4 4 .2 6 .7C71.4 13 78.4 16.5 84.4 22c7.2 6.6 11.8 14.8 13.6 24.4.8 4.3.8 8.7.4 13.1-.7 9.2-4.3 17.3-10.3 24.3-7.3 8.5-16.7 13.8-28.1 15.1-9.9 1.1-19.4-.5-28.1-5.7-9.8-5.8-16.4-14.2-19.9-25-.9-2.7-1.5-5.4-1.5-8.2 0-.3 0-.6-.2-.8v-8.6c.4-.7.2-1.5.3-2.3.4-3.9 1.6-7.6 3.1-11.2 2.2-5.1 5.2-9.6 9.1-13.5 4.8-4.8 10.4-8.4 16.8-10.7 3.7-1.3 7.5-2.1 11.4-2.2.1 0 .3 0 .4-.1h.7c.5.2 1.1.1 1.6.1h1.6c.5-.1 1 .1 1.5-.2z" fill="#332965"/><path d="M55.3 10.7h-1.8l-.1-.1.1-.1h1.8c.1.1.1.1 0 .2z" fill="#5a5283"/><path d="M53.5 10.5v.2c-.5 0-1 .3-1.5-.2h1.5z" fill="#7e789e"/><path d="M55.3 10.7v-.2h1.5c-.4.5-1 .2-1.5.2z" fill="#807a9f"/><path d="M81.4 55c0 14.9-12.2 27.1-27.1 27.1-15.1 0-27.2-12.2-27.2-27.5 0-14.7 12.3-26.8 27.2-26.8 15-.1 27.1 12.1 27.1 27.2z" fill="#fefefe"/><path d="M39.8 26.6c-.4-.8-.6-1.3-1.5-.3-.9.9-2.2.9-3.3.2-.5 0-.7-.3-.7-.7.2-.2.4-.6.6-.7.5-.3.5-.7.2-.9-.5-.2-.7-1.5-1.6-.5-.2.2-.3.5-.7.5-1 .5-1.3 1.1-.4 2.1s1.6 2.1 2.4 3.1c.3.3.8.4.2.9-.1 0-.2.1-.2.1-.3.3-.5.5-.9.1-.5-.5-.7-1.2-1.4-1.6-.3-.3-.7-.5-.8-.9-.1-.1-.2-.3-.3-.4-.3-.3-.7-.5-.8-.9-.7-1-.9.1-1.3.3-.2.4-1 .6-.4 1.3l.2.2c.5.4 1 .8.2 1.3l-1.6 1.6c-.1.5-.6.9-.2 1.4.1.1.3.2.4.3.5-.1.9 0 1.4 0 .9.1 1.5-.3 1.7-1.1 0-.6-.2-1.2.3-1.6.2 0 .5-.1.7.1.5.4.1 1 .3 1.5.8.4 1.7 0 2.5.2.3.8-.3.9-.8 1s-1.1-.2-1.5.3c-.1.7.2 1.4-.2 2.1h-.8c-.3-.5-.1-1.1-.1-1.6 0-.2.1-.6-.4-.4-.5.4-.8 1-1.5 1.1h-1.9c-.1.2-.3.4-.4.7 0 .6-.5.8-1 1.1-1.1.4-2.2.2-3.1-.6-.2-.2-.4-.3-.6-.5-.2 0-.3.1-.5.2-.8 1.6-.7 1.4.6 2.1l3.6 2c.2.1.6.3.3.6-.2.3-.3.6-.8.4-1-.2-1.7-.9-2.6-1.3-.6-.3-1.1-.7-1.7-.8-.5-.3-.9-.3-1.1.3-.3.7.3.7.6.9.2.1.3.2.5.3.6.3.5.9.8 1.4.2.4.2 1.1.9.6h.2c.5-.4 1.1-.7 1.8-.4 0 .4.1.8 0 1.3-.3.3-.7.4-1.1.3l-4 1.2c-.3.2-.6.3-.7-.1-.1-.6-.1-1.2.7-1.3.4-.3 1.1-.4.7-1.2l-.6-.6c-.6-.5-1.1-.4-1.3.4-.1.5-.3 1-.4 1.4a.45.45 0 0 1 0 .5c-.1.4-.1.8-.3 1.2-.5.3-1.1.7-1.1-.4 1.1-3.8 2.8-7.4 4.9-10.8 1-1.6 2.3-3.1 3.5-4.7-.2-.5-.9-.3-1.1-.6-.9-1.2-.2-3.5 1.2-4.3 1.5-.8 2.9-.5 4.2.1.6.3.9.2 1.3-.2.6-.5 1.2-.9 1.9-1.3.3-.4.8-.5 1.1-.8 1.7-.6 3-1.8 4.6-2.4.1-.2.3-.2.4 0s.2.4.2.6c.2.5-.8.8-.3 1.4.6 1.3 1.1 2.6 1.7 3.9.3.6.3 1.1-.4 1.3-.2.4-.3.2-.4 0z" fill="#fdfdfd"/><path d="M80.2 26.1c2.4 1.9 4.2 4.3 6.1 6.7.6.5.9 1.2 1.2 1.8 1.4 2.6 2.8 5.3 3.8 8.1l.3.8c.1.4.6.9.2 1.3-.4.3-.9.1-1.3-.2-.3-.2-.6 0-.8.1l-4.1 1.2c-.6.2-.8.1-1-.5-.2-.7.2-.7.6-.9l4.4-1.4c.9-.2.7-.7.5-1.3s-.5-1-1.3-.7L84.6 43c-.3.1-.7.6-.9-.1-.1-.5-.4-1 .4-1.2.4-.1.8-.3 1.2-.5 1.4-.6 1.5-1.4.5-2.6-.4-.5-.4.1-.7.1-.2 0-.5.2-.6.1-.3-.1-.2-.5-.1-.7.2-.6.3-1.1.6-1.7.2-.6.4-.1.6.1.5.5.9 1.2 1.2 1.9.1.3.2.5.4.8.3.3.3 1 1.1.6s.5-.9.3-1.4c-.5-1.4-1.2-2.6-2.1-3.7-.4-.4-.8-1-1.5-.4l-3.5 2.3c-.3.2-.6.8-1 .1-.3-.6-.4-1 .3-1.3.3-.2.6-.5.9-.8s.5-.6.9-.7c.5-.5-.1-.8-.3-1.2-.8.7-1.5 1.6-2.8 1.3-.5-.1-.9-.4-1.2-.8-.5-1.5-.2-3 .3-4.4.2-.7.8-.7 1.2-.5.5.3 0 .6-.2.9-.3.8-.8 1.6-.8 2.5 0 .6.2 1.1.9 1.2.6.2.8-.3 1.1-.8s.4-1.1.7-1.7l1.9 2.3c.4.6.6.4 1 .1s.7-.5.2-1c-1.1-1.4-2.4-2.7-3.6-3.9-.2-.2-.4-.3-.5-.5-1.4-1.6-1.6-1.5-3 .1l-1.9 2.2c-.8 1.2-1 1.3-1.8.6 0-.7.6-1.1 1-1.6.6-1 1.4-1.9 2.1-2.9.4-.6.2-1-.4-1.4-.5-.3-.9-.5-1.4.2l-2.5 3.7c-.2.3-.3.9-1 .5-.6-.4-.3-.7 0-1 .6-.8.3-1.1-.6-1-.3-.1-.6-.1-.8-.4-1.1-.9-1.2-2.1-1.2-3.6.3.2.5.3.7.3.6.2 1.2.3 1.3-.4.2-.6.4-1.4-.5-1.8-.4-.2-.8-.3-1.2-.5-.3-.1-.8-.1-.5-.7.2-.6.6-.3.9-.2l3.2 1.6 4.8 2.9c-.1-1.4-.7-2.6-1-3.9 1.1-.4 1.5.1 1.6 1.1l.4 2.8c.1.4 0 .8.5 1 .4.3.7.7 1 1.1z" fill="#fefefe"/><path d="M46.4 18c-.9.2-1.8.2-2.7.8-.4.3-.3-.5-.5-.7.6-.9 1.6-.7 2.4-1 .2 0 .4-.1.7 0 .2 0 .5 0 .7-.1.2-.2.4-.1.7-.1.1 0 .3 0 .4-.1.3-.1.6-.4.9-.1h2.1c-1-1.1-2.3-1.4-3.2-2.2-.3-.2-.3-.5 0-.7.4-.6.8-.4 1.1 0a7.55 7.55 0 0 0 1.4 1.1c.4 0 .5.3.7.5.4.1.7.3.9.6.1 0 .1.1.2.1 1.2.4 2.4.1 3.6.2.7.2 1.4 0 2.1.3l2.7.4c.2-.1.5-.1.6.1.2.2.4.2.7.1s.5 0 .7.1c.6.1 1.1.2 1.7.4.3.1.7.1.5.6-.1.4-.3.5-.6.4-.5-.2-.5.2-.6.5l-.6 2.9c.1.8-.2 1.5-.4 2.2-.1.2-.2.4-.5.1-.7-.2-1-.5-.8-1.4.3-1.2.7-2.4.7-3.6-.1-.5.5-1.1-.5-1.3-1.2-.3-1.2-.3-1.5 1.3-.1.3-.2.6-.2.9.1.2.1.5-.1.7-.2.3-.2.6-.2.9.1.2.2.5-.1.6-.1.3-.1.5-.2.8s0 .7-.5.6c-.5 0-.9-.1-.8-.7.2-1.1-.8-.5-1.2-.7-.2-.1-.3.1-.3.2-.3-.1-.5-.3-.8-.4-.5-.1-.7-.7-1.1-.9-.5-.6-.6-1.3-.2-2 .3-.8 1-1.2 1.7-1.3.2-.2.4-.1.7-.1.6.1 1.3.1 1 1-.3.6-1 .1-1.4.4-.2.1-.4.4-.4.6v.4c0 .3 0 .5.3.6.5.2.8 0 1.1-.4.3-.3.5-.6.6-.9.2-.4.2-.8.2-1.2 0-.3 0-.7.3-1-.5-.2-1.1-.2-1.7-.2-.4.1-.7.2-1.1-.1-1.1-.2-2.2-.3-3.3 0 .2.6 0 1.2.1 1.7.1.4 0 .8.1 1.3 0 .1.1.2.1.3 0 .3.1.6-.1.9v2c-.4.2-.8.2-1.1 0v.1h.1c-.3-.3-.2-.7-.1-1.1 0-.5.1-1.1-.2-1.6-.1 0-.1-.1-.1-.1 0-.1 0-.1.1-.1v-.2c-.5-.3-1 0-1.6-.2-.8-.3-1.1.6-1.7.8-.3.1.1.5.3.7.4.5 1.4.5 1.4 1.5-.3.4-.5.9-1.1.3l-.3-.3c-.5-.2-.9-.6-1.3-1.1l-.3-.3c-.5-.3-.9-.6-1.3-1.1-.6-.4-.6-.8-.1-1.3.6-.6.8 0 1 .3.3.3.5.4.9.3s.5-.4.5-.8.1-.9-.2-1.3c-.2.2-.5-.1-1 .1z" fill="#fcfcfc"/><path d="M93 62c-.7.1-1.3-.2-2-.2-.2 0-.5.1-.6-.1-.2-.2-.4-.2-.7-.1-.1.1-.3.1-.4.1h-.5c-.1 0-.1 0 0 0 .3.2.5.4.7.6.9.5 1.8 1 2.8 1.3.5.1.5.5.4.9-.1.3-.4.3-.7.3-1-.1-2.1 0-3.1 0-.3.1-.6 0-.9.1.6.3 1.2.5 1.8.7.4.1.8.4 1.2.4 1 .1 1.1.6.8 1.4-.2.2-.4.2-.7 0-1.1-.4-2.1-.9-3.3-1.1-.2-.1-.4-.1-.6-.2-1.8-.6-1.9-.7-1.2-2.5.4-.1.8-.1 1.2-.1.6.2 1.3.1 1.9 0 .1 0 .1-.1.1-.1 0-.1 0-.1-.1-.1-.2-.3-.5-.4-.7-.6l-.2-.2c-1.5-.7-1.5-.7-1.3-2.4a.37.37 0 0 1 .6 0c.2.2.4.2.7.1s.6-.1.9.1l1.9.3c.2-.1.5-.1.6.1.4.4 1.6-.2 1.4 1.1.2.1.2.2 0 .2zM29.3 81.6c-.7.6-1 1.6-2.1 1.8-1.1-.8-1.1-.8-.5-2 .1-.3.2-.7.4-.9.3-.4.5-.8.6-1.3-.1-.2-.1-.5-.4-.5-.6.7-1.2 1.4-2 2-.3.2-.5 0-.7-.2-1-.9 0-1.2.5-1.6.7-.7 1.6-1.1 2.2-2 .3-.3.6-.5.9-.7.6-.3 1 0 1.3.4.3.5-.1.9-.3 1.3-.1.6-.6 1.1-.6 1.9.7-.3 1-.8 1.4-1.2.3-.3.6-.7 1.2-.4.5.5.3.9-.1 1.4-.3.3-.7.6-1 1-.1.5-.5.8-.8 1zm-4.4-3.9c-.6.4-1.3.4-2 .7-.4 0-.7-.1-.9-.4l-.2-.2c-.2-.2-.5-.4-.6-.7-.3-.3-.5-.7-.3-1.1 0-.7.3-1.2.8-1.7.9-.7 1.7-1.5 2.8-2s1.9-.2 2.5.6.8 1.7.3 2.7c-.3.7-1.1.9-1.5 1.5-.3.3-.6.4-.9.6z" fill="#f9f9f9"/><path d="M15.6 58.6c.7-.7 1.8-.8 2.6-1.5 0-.1 0-.2-.1-.3-.7-.3-1.4 0-2.1 0-.4 0-.8.1-1.2-.1-.2-.5-.4-1 .3-1.4h3.4c.9 0 1.8-.1 2.6.1.4.5 0 1 .2 1.5-.2.3-.5.3-.9.3l-2 .9c-.2.1-.3.2-.5.4.1.1.2.1.4.1 1 0 1.9-.3 2.9-.3.4 1.2.3 1.3-.8 1.3-.3 0-.6.1-.8.2-.1.2-.3.2-.4.1-.5 0-.9 0-1.3.2-.6.2-1.1.4-1.8.3h-.2c-.2.1-.4.2-.7 0-.3-.4-.2-.7-.2-1 0-.4.1-.8.6-.8z" fill="#fafafa"/><path d="M85.3 75.4c.5.2.8.7 1.4.9.6.1.2.6 0 .9-.3.4-.6.6-1.1.2-1-1-2.2-1.7-3.4-2.4-.4-.1-.7-.4-1.1-.6-.2-.2-.3-.3-.1-.5.4-.6.8-.9 1.4-.3.2.2.4.3.7.4s.7.7 1 .1c.3-.5.8-1.1.1-1.7-.2-.2-.4-.3-.6-.4-.7-.3-.8-.7-.5-1.4.4-.3.6-.1.9.2l4.2 2.3c.5.3.4.5.3.9-.2.4-.4.5-.8.3-.5-.2-1-.3-1.4-.6-1-.8-1.1-.1-1.2.7-.3.5.1.8.2 1z" fill="#fbfbfb"/><path d="M55.5 88.5c.1.1.1.3.2.4.2.3.2.6 0 .9-.4.6-.7 1.2 0 1.8.3.5.2 1.1.2 1.7 0 .4 0 .8-.5.8-.5.1-1 .1-1-.6-.3-.5.3-1.2-.2-1.7-1.4-.5-1.6-.3-1.7.9-.1.5.1 1-.1 1.4-.5.2-.9.2-1.3-.1v-.4c-.1-.3-.1-.7-.1-1l.1-.1c.2-.6.2-1.2.2-1.8-.1-.3-.1-.6-.1-1 0-.1 0-.2.1-.3.1-.5 0-1.1.3-1.6 1-.4 2.1-.2 3.2-.1.3 0 .7.3.7.8zm20.6-8c-.1.2-.4.3-.2.7.9.7 2 .3 3 .2.5 0 .9-.1 1.2.2.2.2.5.4.7.6.4.4.4.8.1 1.3-.1.2-.2.5-.3.7-.1.7-.7.9-1.2 1.1-.1.3-.5.1-.7.3-.3.2-.6.1-.9 0-.2-.4-.5-.5-.9-.7-1-.7.2-.7.4-1.1.2-.3.3-.3.5 0 .5.4.9.6 1.5.2.3-.3.6-.6-.1-.9s-1.4-.1-2.2-.2c-.8 0-1.6.2-2.2-.6-.3-.2-.4-.6-.5-1s.1-.7.3-1c.4-.5 1-.8 1.6-1.1.3-.2.6-.2.8 0 .2.1.4.3.7.3.7.3.3.5 0 .8-.4.6-1.1-.2-1.6.2z" fill="#f9f9f9"/><path d="M43.8 85.8c.1 0 .1.1.2 0 .6 0 1 .2 1.4.6a.76.76 0 0 1 .2.4c.3.5.4 1.1-.1 1.4-.6.3-1.1 0-1.4-.6-.1-.2-.2-.4-.5-.3-.1.1-.1.2 0 .3.1.2.3.4.4.6.1.4.5.7.6 1.1.8 1.6.5 2.5-1.1 3.2-1 .4-1.8-.3-2.3-.9s-.6-1.4.1-2.1c1.4-.1.5.9.7 1.4.2.9.9.7 1.4.4.7-.5.3-1-.1-1.5-.392-.19-.71-.508-.9-.9l-.2-.2c-.6-.7-.5-1.4-.2-2.2.1-.1.1-.3.2-.4.2-.4.6-.4 1-.5.1.1.4 0 .6.2z" fill="#fafafa"/><path d="M28.6 83.8c1.3-1 2.7-1.8 3.9-2.9.3-.3.6-.8 1.1-.4.2.2.4.4.7.4.9.7-.1 1.2-.2 1.8l-1.7 4.4c.1.1 0 .2-.1.2-1.3 0-1-.9-.8-1.7.3-.4-.1-.7-.3-1-.3-.3-.6-.7-1.1-.2-.2.4-.6.5-.9.7-.3 0-.5-.2-.6-.4-.1-.1-.1-.2-.2-.4-.3-.1 0-.3.2-.5z" fill="#f8f8f8"/><path d="M82.2 81.6c-.3-.1-.6-.3-.9-.4-.3-.2-.7-.2-.8-.5-.1-.1-.2-.3-.3-.4-.3-.2-.6-.4-.6-.8-.2-.6-.7-1-1-1.4-.4-.7-.1-1.2.3-1.8.3-.4.6-.8 1.1-.9.5-.3.9 0 1.3.2.7.7.6 1.1-.4 1.1-.4.1-.7 0-1.1 0-.4.3-.7.8-.2 1 1.1.5 1.5 1.7 2.6 2.3.4.2.8.1 1.1 0 .6-.3.5-.8.1-1.2-.3-.3-.2-.6-.1-1 .1-.3.3-.5.7-.3l.7.7c.4.4.3.9.2 1.3-.5.5-.7 1.4-1.3 1.8-.4.6-.9.5-1.4.3z" fill="#f7f7f7"/><path d="M19.5 61.6l2.4.2c.3.6.6 1.2-.2 1.8-1.5.7-2.8 1.6-4.2 2.4-.8.5-1.1.4-1.3-.5-.5-.5.2-.5.3-.7.7-.2 1-.6.9-1.4-.1-.6-.2-.8-.8-.7-.9.1-1.3-.2-1.1-1.1.1-.2.3-.2.5-.2.8-.1 1.5.1 2.3.1h1.1s.1 0 .1.1z" fill="#f9f9f9"/><path d="M88.4 70.1l.1.1c1.3.4 1.1-.7 1.4-1.4.2-.3.5-.6.9-.3s.1.6 0 .9c-.1.2-.2.5-.2.7-.3.7-.4 1.6-1.2 2.1L84 69.6a.37.37 0 0 1 0-.6l.9-2c.1-.3.3-.5.7-.4.4.2.3.4.2.7-.1.1-.1.3-.2.4-.1.4-.6.8-.2 1.2.3.3.8.7 1.3.5.4-.2.5-.8.5-1.3.1-.3.1-.8.7-.6.6.3.7.6.3 1.1-.2.3-.3.5-.3.9 0 .3.4.4.5.6z" fill="#f8f8f8"/><path d="M74.3 88.7l-1.8 1.1c-.5.3-.9.4-1.2-.3-.2-.1-.4-.3-.3-.6l-1.9-4c-.4-.7.2-.8.6-.9.5-.2 1-.5 1.3-1 .4-.3.6-.1.9.2.3.8-.6.8-.9 1.3-.4.3-.4.7-.2 1.1v.1h.1c.5.4.9 0 1.3-.2.2 0 .4-.4.7 0 .2.2.4.4.2.7-.1.2-.4.1-.6.2-.4.2-1.1.2-1 .8.1.5.3 1.2.9 1.4.5.2 1.1 0 1.3-.6.2-.3.5-.2.8-.1.5.3.4.6-.2.8z" fill="#f7f7f7"/><path d="M58.4 89.4c.1.9.5 1.7.9 2.6.5-.3.3-.8.4-1.3.1-1.1-.2-2.2.1-3.3h1c.3.6.1 1.2.1 1.7-.2 1.4-.1 2.8-.3 4.2-.1.4-.5.5-.9.6-.4 0-.8.2-1.1-.2l-2-5.3c-.2-.3-.3-.6.1-.7s.9-.2 1.2.3.4 1 .5 1.4z" fill="#f8f8f8"/><path d="M67.4 87c-.1-.6-.5-1-1.1-.9-.7.1-.7.7-.7 1.3 0 .8.1 1.5.4 2.2.4.6.6 1.3 1.2 1.6.3 0 .7.1 1-.1.1-.1.2-.3.3-.4 0-.6-.1-1.1.1-1.6.2-.3.5-.4.8-.1.1.3.1.7.2 1 .1.5 0 .9-.2 1.3-1.3 1.5-3.2 1.2-4-.6l-.6-1.6c-.2-.5-.5-1-.3-1.5v-.2c-.1-.5-.2-1 .2-1.3.1-.1.2-.1.2-.2.3-.2.6-.3.9-.4.2-.1.4-.1.7-.2.4-.1.8 0 1.1.4l.6.9c.3.9-.5.3-.8.4z" fill="#f5f5f5"/><path d="M46.7 88.5c.2-.2.2-.4.1-.7-.2-.6.1-.9.7-.9.3 0 .6.1 1 .1.4.1.9.1 1.3.2.7.1 1 .4.5 1.1-.4.1-.8 0-1.2 0-.3 0-.6-.1-.9-.1-.1.6-.7 1.3.2 1.7.2-.1.5-.2.7.1.2.1.5.1.7.2.2.2.2.4 0 .7-.3 0-.6 0-.9-.1-.9-.3-1.3-.1-1.5 1-.1 1 .2 1.2 1 1.1.1-.1.2-.1.3 0 .3.1.9 0 .9.6 0 .7-.6.4-.9.5-.5-.7-1.2-.5-1.9-.6-.8-.2-1.1-.4-.8-1.2.3-1 .4-2 .6-3 0-.3-.1-.5.1-.7z" fill="#f8f8f8"/><path d="M89.1 58.9c-.6-.4-1.2.1-1.8-.2-.4-1.1-.2-2.1-.1-3.2.9-.3.9-.3 1.1 1.1.1.2.1.4 0 .6v.4c.4.6 1 .3 1.6.2.2-.5.2-1 .2-1.5-.2-.3 0-.6.2-.8.3-.1.6.1.7.4.1.6 0 1.3 0 1.9.5.6 1.1.3 1.7.3.4-.3.3-.7.3-1.1v-1c.1-.5.3-.6.8-.3v.2c.1.3.1.6.1.9-.2.9.2 1.9-.5 2.7-.7 0-1.4-.1-2-.3s-1.2-.2-1.8-.2c-.2 0-.4 0-.5-.1z" fill="#f3f3f3"/><path d="M35.6 89.8c-.4-.3-.7-.8-1.2-1-1.3-.6-1.3-.7-.5-2 .8-1.2 1.7-2.4 2.2-3.7.1-.3.3-.5.6-.2 1.1.8.2 1.6-.2 2.1-.6.8-1 1.6-1.5 2.4-.8 1.1.4 1.1 1 1.5 1.3.5 1.3.7.5 1.5-.3-.2-.6-.5-.9-.6z" fill="#f8f8f8"/><path d="M23.5 66.5c.1.7.4 1.3.7 1.9.1.6-.4.6-.8.5-.4-.2-.3-1-1-.9l-4.6 1.7c-.7-1.2-.7-1.3.6-1.8l2.1-.7h.2c.2-.4.6-.4 1-.5.5-.2.8-.3.5-.9-.2-.4 0-.8.4-.9.5-.1.6.3.7.6.1.4.1.7.2 1z" fill="#fafafa"/><path d="M61.9 86.9c.1 0 .3 0 .4-.1.3-.2.6-.5.7.1 0 .1.1.3.1.4.6 1.7.9 3.4 1.5 5.1-.2.6-.7.6-1.2.5-.4-.1-.5-.5-.6-.8-.1-.5-.1-.9-.3-1.4-.1-1.1-.3-2.3-.9-3.3 0-.1-.2-.4.3-.5z" fill="#f4f4f4"/><path d="M24.8 70.6l-4.3 2.3c-.7.4-1.1.4-1.4-.3-.3-.4 0-.6.3-.8l1.3-.6c.8-.3 1.5-.6 2.2-1.1.5-.2.8-.8 1.5-.6.4.3.6.6.4 1.1z" fill="#f7f7f7"/><path d="M88.5 64.6l3.1.1c.3 0 .7.1 1-.2.1-.1.1-.1.2 0-.1.5-.3.7-.8.6-1-.3-2-.1-3.2-.1l1 .7L87 65c.4-.8 1-.4 1.5-.4z" fill="#3e3949"/><path d="M31.2 78.3c-.5-.1-.8.3-1.1.6-.7.7-1.3 1.3-2.1 1.9.2-1.1.7-1.9 1.2-2.7.1.5-.2.9-.4 1.7l1.2-1.2c.4-.4.7-.7 1.2-.3z" fill="#3a3548"/><path d="M55.5 88.5c-.7-1-1.8-.7-2.8-.7-.4 0-.8 0-1.2.1 0-.1-.1-.3 0-.3.5-.4 3.3-.2 3.8.3.3.1.5.3.2.6z" fill="#2c2549"/><path d="M23.5 66.5c-.3-.3-.4-.7-.5-1.1-.1-.2-.1-.4-.4-.3-.2.1-.4.2-.4.3.7 1.7-.8 1.4-1.6 1.8.1-.5.5-.5.8-.6.5-.1.7-.4.5-.9-.3-.6.1-.8.6-1 .6-.2.6.3.8.6.2.4.2.8.2 1.2z" fill="#363147"/><path d="M55.5 16.4h-2.9c-.3 0-.6 0-.6-.4 1.4.1 2.8-.3 4.2.2-.2.3-.4.1-.7.2z" fill="#37324a"/><path d="M87.3 55.4v3.3c-.6-.7-.6-2.9 0-3.5.2 0 .2.1 0 .2z" fill="#362f4f"/><path d="M59.8 87.4v5.4c-.5-.2-.4-.5-.5-.8.4-1.2.2-2.5.3-3.8-.1-.2-.3-.6.2-.8z" fill="#2e2b37"/><path d="M20.5 67.3c-.6.2-1.2.6-1.8.7-1 .2-1.6.6-.9 1.7-1-1.1-1-1.3.3-1.8.8-.3 1.5-.7 2.4-.6z" fill="#3a3549"/><path d="M59.9 19.4c0-.2-.1-.4 0-.5.1-.4-.1-1.1.4-1.1.6 0 1.3.1 1.7.4s.1.8-.1 1.2c0-.7-.2-1.3-1.1-1.3-.7 0-.4 1-.9 1.3z" fill="#3a3646"/><path d="M64.6 92.5c-.6-1.7-1-3.4-1.4-5.1.8 1.5 1.1 3.2 1.4 4.9.1 0 .1.1 0 .2z" fill="#3a3644"/><path d="M64.6 92.5v-.3c.5.6 0 .8-.5 1s-1 .2-1.2-.4-.4-1.2-.3-1.9c.3.3.3.8.4 1.2.3 1 .6 1.1 1.6.4z" fill="#383448"/><path d="M43.6 88.5l-.5-.5c-.2-.4-.1-.6.2-.9.3-.1.7-.1.9.2s0 .8.3 1.1v.3h-.2c-.3.1-.5-.1-.7-.2z" fill="#322963"/><path d="M80 81.6c-1-.3-1.9.1-2.8.1-.5 0-1.1.1-1.3-.6 1 .3 2 .3 3 .1.4-.1.9-.1 1.1.4z" fill="#393646"/><path d="M24.4 69.5l-1.5.6c0-.5 1.5-.7.2-1.3.1-.1.2-.1.3 0 .4.2.6-.1.8-.4.7.3 0 .8.2 1.1z" fill="#372f59"/><path d="M54.4 93.5c.1.6.6.6 1 .5.5-.1.3-.5.3-.8 0-.5 0-1.1-.1-1.6.2.1.2.3.3.4.3.6-.1 1.2.2 1.8-.2 1-.9.3-1.4.4s-.3-.4-.3-.7z" fill="#3e3950"/><path d="M86 63.5v.2c-.3 1.6-.3 1.6 1.3 2.1.2.1.4.1.5.3-2.2-.2-2.6-.8-2-2.7.1 0 .1 0 .2.1z" fill="#3c3849"/><path d="M58.4 89.4c-.4-.3-.3-.8-.6-1.2-.2-.4-.5-.3-.8-.4-.5 0-.4.3-.4.6-.4-.1-.5-.4-.3-.7s1.5-.1 1.7.3c.3.4.4.9.4 1.4z" fill="#373342"/><path d="M48.6 87.2c-.6.2-1.5-.6-1.7.6-.3-.7-.1-1.2.6-1.1.8.1 1.6 0 2.3.4l-.1.1c-.4.1-.7.1-1.1 0z" fill="#2b244e"/><path d="M27.1 80.5c-.1.3-.1.5-.2.7-.5.8-.5 1.6.3 2.2-1.4-.5-1.4-1.5-.1-2.9z" fill="#3a354c"/><path d="M21.2 58.3c-1 .3-2.1.4-3.2.4-.1-.2-.4 0-.5-.3.3-.2.6-.4.9-.4-.1.7.5.4.7.3.7 0 1.4-.2 2.1 0z" fill="#403b51"/><path d="M14.9 56.7l3.7-.2c.2 0 .4-.1.4.2 0 .1-.2.2-.3.2-.7-.1-1.3-.2-2 0h-1.8c-.1 0-.1-.1 0-.2z" fill="#3b3746"/><path d="M21.3 40.1c-.2-.1-.5-.1-.7-.2s-.8 0-.7-.5c.1-.4.2-.9.5-1.2.3-.2.6.1.9.4-.4 0-.9-.1-1 .5-.1.5.4.5.7.7l.3.3z" fill="#3f3c47"/><path d="M23.1 35.7c1 .5 2 1 3.1.5.1 0 .1.1.1.1l-.1.1c-1.4.5-2.4.3-3.1-.7z" fill="#3c3748"/><path d="M60.6 93.3c0-1.4-.1-2.8.2-4.2l.1.1c0 .5.1.9-.1 1.4-.1.9.2 1.9-.2 2.7z" fill="#3b3643"/><path d="M44.5 88.5c-.3-.3-.2-.7-.2-1.1-.1-.1-.1-.2 0-.3.5.3-.2 1 .5 1.2 1.4.3.7-.8.9-1.3h.2a1.95 1.95 0 0 1 0 1.5c-.5.2-1 .1-1.4 0z" fill="#3b3552"/><path d="M77.1 82.9c.7-.1 1.5-.6 2.2.2-.7 0-1.5.3-2.2-.2z" fill="#2f2751"/><path d="M16 61.5c-.2 0-.3 0-.5.1-.1.2-.2.4-.4.7.1-1.2.8-1.5 2.4-.9-.4.2-1-.1-1.5.1z" fill="#292150"/><path d="M91.3 59.1c.6 0 1.3 0 1.9.2.2-.1.4-.1.5 0-.9.6-1.8-.1-2.8 0-.1 0 0-.1.1-.2h.3z" fill="#2d2747"/><path d="M41.8 86.7c-.1.8-.1 1.5.2 2.2-.8-.7-.8-1.5-.2-2.2z" fill="#302a49"/><path d="M32.3 33.3c.5-.6 1.2-.2 1.8-.3.5-.1.7-.2.6-.7.1-.1.2-.1.3 0 .1.9-.3 1.2-1.1 1.1h-1.3c-.1 0-.2 0-.3-.1z" fill="#3d3946"/><path d="M52.5 92.4c0-.4-.2-.9.3-1s1.1-.3 1.4.3c-.5.2-1.4-.5-1.6.7 0 .2-.1.2-.1 0z" fill="#2d264c"/><path d="M18.4 55.3h-3.5c-.1-.1-.1-.1-.1-.2s0-.1.1-.1h3.5c.1.2.1.2 0 .3z" fill="#3e3a46"/><path d="M20.3 43c-.4.3-1.2.2-.9 1.1.1.4.3.4.6.4-.2.3-.5.6-.7.2-.2-.5-.3-1.1.2-1.5 0-.2.3-.2.5-.2.1-.1.2-.1.3 0z" fill="#383541"/><path d="M36.3 90.1c1-.5 1-.5-.2-1.4.6 0 1.2.1 1.1.9 0 .5-.2 1-.9.7-.1-.1-.1-.1 0-.2z" fill="#3c374c"/><path d="M62.4 24.2c0-.8.3-1.5.5-2.2.4.8 0 1.5-.3 2.2-.1.1-.2.1-.2 0z" fill="#2a234b"/><path d="M56.8 22.4c.4-.1.8-.3 1.2-.4.2.4.1.8-.1 1.1-.1-.5-.7-.3-1.1-.7z" fill="#373249"/><path d="M68.7 89.1c0 .5.2 1.1-.2 1.6-.4-.6-.4-1.2 0-1.8.1.1.2.1.2.2z" fill="#2d2554"/><path d="M73.6 30.3c.9.8 1.2-.2 1.8-.6-.1.7-.5 1.1-1 1.2-.4.1-.7-.2-.8-.6z" fill="#3b374a"/><path d="M90 68.8c.2.4-.1.7-.2 1-.2.8-.6.9-1.2.3 1 .2 1-.8 1.4-1.3z" fill="#3f3b48"/><path d="M51.1 94c.4.1.9.1 1.3 0 .2 0 .2.2.2.3-.5.1-1.1.6-1.5-.3z" fill="#2e2651"/><path d="M48.8 94c.1-.4.8 0 .8-.5 0-.6-.7-.2-.9-.5.3-.2.6-.2.9 0 .5.1.4.4.3.7-.3.4-.7.3-1.1.3z" fill="#433f52"/><path d="M34.1 82.7c0-.6.8-1.1.2-1.8.5 0 .8.2.5.7-.1.5-.3.9-.7 1.1z" fill="#3d384e"/><path d="M25.1 41.7c-.6-.1-1.2.3-1.8.4.4-.7 1.1-.6 1.8-.7.1-.1.1.2 0 .3z" fill="#2f2944"/><path d="M45.6 17.2c-.8.4-1.7.4-2.4.9.2-.9 1.1-.8 1.8-1a.47.47 0 0 1 .6.1z" fill="#383546"/><path d="M93.7 59.3h-.5c.6-.8.1-1.8.5-2.7.2.1.1.3.1.5 0 .4.1.9-.1 1.3v.9z" fill="#393442"/><path d="M16 60.2c.6-.2 1.2-.3 1.8-.3h.1s.1 0 .1.1c-.7.2-1.3.7-2 .2z" fill="#2e2848"/><path d="M38.9 21.7c-.8-.6-.1-1 .3-1.4.4.1.4.4.1.6s-.4.4-.4.8z" fill="#322d45"/><path d="M67.2 91.3c-.8-.3-1-.9-1.2-1.7.6.3.7 1.1 1.2 1.5.2.1.2.2 0 .2z" fill="#332e47"/><path d="M89.5 72.1l1.2-2.1c-.2.9-.3 1.8-1.2 2.1z" fill="#39344b"/><path d="M58.6 17.6c.1.4.2.7.1 1.1-.1.1-.2.1-.3.1-.3-.2-.3-.6-.7-.6-.2 0-.4 0-.6-.1-.1-.1-.1-.2 0-.3.4-.3 1-.1 1.5-.2z" fill="#292246"/><path d="M35 32.2h-.3c-.8-.1-1.7.2-2.5-.3 0-.1.1-.1.2 0 .8.2 1.7-.2 2.6.3z" fill="#312c40"/><path d="M86.6 38.5c-.5-.5-.8-1.2-1.2-1.9.8.4 1.1 1.1 1.2 1.9z" fill="#38324e"/><path d="M14.9 55.1v.2c-.1.4-.2.9 0 1.3v.2c-.7-.5-.7-1.1 0-1.7z" fill="#241e3d"/><path d="M18.4 55.3v-.2c.9.1 1.8-.2 2.6.2h-2.6z" fill="#39373f"/><path d="M24.2 28.5c.4.1.9 0 1.2.2.6.2.1.3-.1.4-.3-.3-1 0-1.1-.6z" fill="#332e44"/><path d="M21.8 63.5c.5-.6.2-1.2.2-1.8h.2c.2.3 0 .6.2.9 0 .5.1 1-.6.9z" fill="#363048"/><path d="M77.3 83.8c0 .4-.9.5-.4 1.1-.4.2-.6-.1-.6-.4.1-.5.6-.5 1-.7z" fill="#3b364a"/><path d="M58.6 93.8c.4.2.8-.2 1.1.2-.8.4-1 .3-1.1-.2z" fill="#2c2455"/><path d="M29.3 29.8c.4-.5-.1-.9-.2-1.3.4.1.7.3.8.7 0 .3-.3.5-.6.6z" fill="#332e46"/><path d="M87.5 34.7l-1.2-1.8c.8.3 1.1 1 1.2 1.8z" fill="#3a364a"/><path d="M89.3 61.5c.1 0 .3 0 .4.1-.3.1-.2.4-.2.7-.3-.1-.6-.2-.9-.4.1-.7.4-.4.7-.4z" fill="#2b273c"/><path d="M76.1 80.5c.5-.7 1.2.1 1.7-.2-.1.3-.2.6-.6.4-.3-.2-.7-.2-1.1-.2z" fill="#332f41"/><path d="M54.5 19.4c-.1.7-.1 1.3.2 2-.4-.1-.4-.4-.5-.7-.1-.4-.2-.7 0-1.1 0-.1 0-.4.3-.2z" fill="#332f43"/><path d="M87.3 55.4v-.2c.4 0 .9-.1 1.1.4-.3.3.1.8-.2 1.2-.3-.5.2-1.5-.9-1.4z" fill="#3e3a44"/><path d="M50.2 88.3c.3-.6.1-.8-.5-.9-.1 0-.1-.1-.1-.1l.1-.1c.3 0 .8-.1.8.4.1.4.2.8-.4.9 0-.1 0-.1.1-.2z" fill="#2f2a40"/><path d="M16 61.5c.5-.3 1-.1 1.5-.2h.9c.1 0 .1.1.1.1l-.1.1H16z" fill="#373242"/><path d="M28.8 28.2c-1.2-.9.2-.9.4-1.3 0 .5-.5.8-.4 1.3z" fill="#262040"/><path d="M45.6 21c.5.2.9.6 1.3 1.1-.7-.1-1.1-.5-1.3-1.1z" fill="#292442"/><path d="M31 33.5c.4-.3.4 0 .4.3 0 .6 0 1.1.1 1.7-.6-.6 0-1.4-.5-2z" fill="#504d55"/><path d="M29.3 33.1c-.5.2-.9.2-1.4 0 .5-.4.9-.4 1.4 0z" fill="#2f2849"/><path d="M79.4 84.1c-.6.5-1.1.5-1.5-.2.4.1.9.2 1.5.2z" fill="#3c3748"/><path d="M87.5 63.3c.4-.1.9.1 1.3-.2.1-.1.2-.1.3 0 .1.2.7.1.2.6h-1.8v-.4z" fill="#2d2454"/><path d="M79.4 85.4l1.2-1.1c0 .8-.5 1-1.2 1.1z" fill="#312c41"/><path d="M16.7 56.9c.632-.3 1.368-.3 2 0-.2.1-.4 0-.5.2-.5-.3-1-.2-1.5-.2z" fill="#241f31"/><path d="M55.5 16.4c.2 0 .4-.1.6-.1h1.5l.1.1v.1s0 .1-.1.1c-.6-.1-1.3-.1-2.1-.2z" fill="#393545"/><path d="M19.5 61.3h1.9v.2h-1.9c-.1 0-.1-.1 0-.2z" fill="#2c2742"/><path d="M67.7 85.6c-.4-.1-.7-.2-1.1-.4h-.1l-.1-.1c.6-.2 1-.1 1.3.5z" fill="#2e2849"/><path d="M41.9 91.1c-.2-.5.3-1.3-.7-1.4.9-.1 1 .1.7 1.4z" fill="#2d2a36"/><path d="M84.8 34.4c.8-1 1.2-.1 1.5.4-.5-.2-.9-.7-1.5-.4z" fill="#3b384a"/><path d="M20.8 75.9l.3 1.1c-.7-.3-.6-.9-.7-1.7.2.3.3.4.4.6z" fill="#2d2650"/><path d="M93.7 55.6c-1.3-.1-.4 1-.7 1.3-.2-.5-.1-1-.1-1.5.3-.2.6-.4.8.2z" fill="#39363f"/><path d="M31.3 30.5c-.4.4 0 1-.3 1.5-.2-.5-.3-1.1.1-1.6.1-.1.2-.1.2.1z" fill="#27213d"/><path d="M90.9 58c-.2-.7 0-1.5-.1-2.2.1-.1.2-.1.3 0v2c0 .2 0 .3-.2.2z" fill="#1d1738"/><path d="M45.4 86.5l-1.4-.6c.7-.4 1.1 0 1.4.6z" fill="#3a3645"/><path d="M32.3 33.3h.2c-.1.7.3 1.5-.3 2.2.1-.8.1-1.5.1-2.2z" fill="#353141"/><path d="M78.9 76.3c-.2.6-.6 1.1-.3 1.8-.6-.7-.5-1.3.3-1.8z" fill="#38353f"/><path d="M47.1 22.3c.5.2.9.6 1.3 1.1-.7-.1-1.1-.5-1.3-1.1z" fill="#292442"/><path d="M69.7 84c-.3.3-.8.3-.6.9-.2-.1-.5-.3-.3-.6.1-.3.4-.5.9-.3z" fill="#373346"/><path d="M89.8 57.8c-.6.2-1.2.7-1.6-.2.5.5 1.1-.2 1.6.2z" fill="#36323f"/><path d="M74.3 88.7c.3-.2.6-.5.2-.9.1-.1.1-.1.2 0 .3.1.4.3.2.7-.1.3-.3.3-.6.2z" fill="#2b2446"/><path d="M64.5 87.6l.3 1.5c-.5-.4-.6-.9-.3-1.5z" fill="#302946"/><path d="M19.5 71.9c-.2.2-.5.3-.4.7-.2-.1-.5-.1-.4-.4.1-.4.5-.4.8-.5.1 0 .1.1 0 .2z" fill="#3a354a"/><path d="M82.2 81.6c.5.1.9-.1 1.3-.2-.3.6-.7.8-1.3.2z" fill="#373247"/><path d="M48.7 23.6c.5.3.8-.1 1.1-.3 0 .4-.3.7-.6.8-.4 0-.5-.2-.5-.5z" fill="#343046"/><path d="M69.4 91.4c-.1-.5 0-.9.2-1.3.5.4.2.8-.2 1.3z" fill="#39334e"/><path d="M34.3 25.7l.7.7c-.6.3-.8-.3-1-.6-.1-.1.1-.1.3-.1z" fill="#322c45"/><path d="M16.9 44.5c.2.9.6.6 1.1.2.2.2.2.3 0 .5-.5.1-1 .4-1.4-.2.1-.2.2-.3.3-.5z" fill="#4e495e"/><path d="M29.5 34.6c-.7.4-1.4.4-2 0 .7-.1 1.3-.2 2 0z" fill="#262044"/><path d="M72.1 85.4c-.4.3-.7 1.2-1.3.2.4-.1.9-.1 1.3-.2z" fill="#2c2641"/><path d="M60.8 89.1v-1.7c.5.5.1 1.2.2 1.7 0 .1-.1.2-.2 0z" fill="#1c1636"/><path d="M52.5 19.2c0-.6-.2-1.2 0-1.8.4.6.1 1.2.2 1.8 0-.1-.1 0-.2 0z" fill="#282536"/><path d="M33.7 80.5c-.5-.1-.7.4-1.1.4.2-.4.4-1.2 1.1-.4z" fill="#3a3548"/><path d="M26.2 36.4v-.2l.9-.9c.2.8-.4.9-.9 1.1z" fill="#322d44"/><path d="M90.9 58l.2-.2c.5.3 1.1.2 1.6.2-.6.4-1.2.3-1.8 0z" fill="#343041"/><path d="M91.1 67.3h.7c-.1.9-.6.1-.9.2v-.1c0-.1.1-.1.2-.1z" fill="#2e2845"/><path d="M84 70.9c-.3-.1-.5-.4-.9-.2-.2-.2-.1-.4.1-.4.5-.1.8.1.8.6z" fill="#2b263f"/><path d="M24 43.3c.3-.2.7-.3 1.1-.3-.3.6-.7.5-1.1.3z" fill="#322d3f"/><path d="M78 33.3c.4.3.8.6 1.2.8-.6.1-1-.1-1.2-.8z" fill="#3b3749"/><path d="M67.4 87c.3-.1.9.1.9-.5.2.2.3.4.1.5-.3.2-.7.4-1 0z" fill="#353140"/><path d="M51.6 87.8c-.1.6 0 1.2-.2 1.8-.2-.4-.2-.9 0-1.4-.1-.1 0-.3.2-.4z" fill="#3f3b45"/><path d="M89.1 60.3c-.3 0-.6-.1-.9-.1.4-.3.9-.1 1.5-.2-.3.2-.4.3-.6.3z" fill="#27204a"/><path d="M32.3 31.9h-.2c-.2-.5.1-1.1-.3-1.5.2-.2.3-.2.5 0v1.5z" fill="#272532"/><path d="M46.4 18c.5-.4.9-.3 1.2.2-.5.5-.7-.4-1.2-.2z" fill="#2e2b3d"/><path d="M55.8 17.3c.4 0 .7 0 1.1.1-.4.3-.8.2-1.2.2-.1 0-.1-.1-.2-.1 0-.1.2-.1.3-.2z" fill="#1d1836"/><path d="M56.2 93.8c-.4-.5-.1-1.2-.2-1.8.4.6.1 1.2.2 1.8z" fill="#312a4b"/><path d="M52.6 94.2c-.1-.1-.2-.2-.2-.3 0-.5.1-1 .1-1.5h.2c-.1.6-.1 1.2-.1 1.8z" fill="#252131"/><path d="M31.2 84.7c.5.2 1 .5.3 1 .1-.4-.4-.6-.3-1z" fill="#221c36"/><path d="M80.9 83.6c0-.4.1-.9-.1-1.3.5.3.5.8.1 1.3z" fill="#2c283c"/><path d="M84.1 68.9v.6c-.2.1-.4.2-.4-.1-.1-.2-.2-.6.4-.5z" fill="#2c2644"/><path d="M80.2 26.1c-.4-.3-.8-.7-1.2-1 .7.1 1 .5 1.2 1z" fill="#3b3748"/><path d="M87.5 63.3v.2c0 .2-.1.2-.2.1h-1.5c.5-.5 1.1-.2 1.7-.3z" fill="#2a2735"/><path d="M20.3 43H20c.3-.3.8-.5.6-1.1.7.6.2.9-.3 1.1z" fill="#282244"/><path d="M82 32.9c.3.3 1.2.5.3 1.2.2-.5-.3-.8-.3-1.2z" fill="#3b3649"/><path d="M27.2 78.7c.2-.2.4-.6.6-.4.3.3-.2.5-.2.8-.1 0-.2-.2-.4-.4z" fill="#262425"/><path d="M87.8 67.5c-.4 0-.4.4-.6.5 0-1.1.5-.9 1.1-.5-.2.1-.4.1-.5 0z" fill="#322d42"/><path d="M16.6 45c.4.4.9.2 1.4.2-.5.2-1 .5-1.4-.2z" fill="#1f1b2e"/><path d="M79.8 76.8c.4-.3.7-.2 1.1 0-.3.3-.7.3-1.1 0z" fill="#272042"/><path d="M77.1 79.2h-.9s-.1-.1-.1-.2c.4-.1.8-.1 1.2 0v.1c0 .1-.1.1-.2.1z" fill="#292341"/><path d="M23.1 42.1c-.8.6-1 .2-.9-.6.4 0 .3.8.9.6z" fill="#3d3945"/><path d="M35 30.2c.3-.4-.2-.6-.2-.9.5.2 1.1.4.2.9z" fill="#282242"/><path d="M31.7 27.9c.3.3.7.5.8.9-.5 0-.8-.3-.8-.9z" fill="#2a2442"/><path d="M57.1 17.8v.2c0 .2-.1.2-.3.1h-.6c-.1 0-.2 0-.3-.1-.2-.2 0-.2.1-.2h1.1z" fill="#292247"/><path d="M49.8 20.3c.5.1 1.1-.4 1.6.2-.6-.1-1.1.1-1.6-.2z" fill="#2e2c38"/><path d="M51.3 20.7c.1.1.1.1 0 .2 0 .4-.1.7-.1 1.1-.1-.5-.2-.9.1-1.3z" fill="#2b2544"/><path d="M59.5 22.4c0-.2 0-.4.1-.6.3.4.2.8.1 1.2-.3-.1-.1-.4-.2-.6z" fill="#282147"/><path d="M33.9 22c-.3.4-.7.6-1.1.8.2-.6.6-.7 1.1-.8z" fill="#3f3950"/><path d="M52.9 23.6c0-.4 0-.7.1-1.1.2.4.3.9-.1 1.2-.1 0-.1 0 0-.1-.1 0-.1 0 0 0z" fill="#221c41"/><path d="M30.6 26.6c.4.2.7.5.8.9-.5-.1-.8-.4-.8-.9z" fill="#282243"/><path d="M93 62c0-.1 0-.2.1-.3.4.8-.3.5-.7.6l.6-.3z" fill="#26213b"/><path d="M92.8 64.4h-.2c.1-.4-.1-.7-.4-.9.7.1.9.3.6.9z" fill="#443f53"/><path d="M87.8 67.5h.4c.3.4.4.8-.1 1.1.2-.5.2-.9-.3-1.1z" fill="#4b4756"/><path d="M24.8 70.6l-.5-1.1c.7.2.9.5.5 1.1z" fill="#343041"/><path d="M19.5 71.9v-.2c.3-.3.7-.5 1.2-.4-.3.3-.7.4-1.2.6z" fill="#3c3847"/><path d="M88.2 56.7c.1-.4-.1-.8.2-1.2 0 .5.2 1.1-.2 1.5v-.3z" fill="#2c2641"/><path d="M81.1 73.9c0 .2 0 .4.2.5.1 0 .1.1.1.1s0 .1-.1.1c-.3 0-.6-.1-.6-.5.1-.2.2-.3.4-.2z" fill="#28233c"/><path d="M81.4 75.6c-.4-.1-.9-.1-1.3-.2.4-.3.9-.3 1.3.2z" fill="#3e3945"/><path d="M23.4 68.8h-.3c-.1-.4-.4-.6-.7-.8.8-.3.7.5 1 .8z" fill="#28242e"/><path d="M22 77.9c.3.1.7.2.9.4-.6.3-.8 0-.9-.4z" fill="#3a3646"/><path d="M84.9 79.6c-.1-.4 0-.9-.2-1.3.7.4.4.9.2 1.3z" fill="#3a3642"/><path d="M29.3 81.6c.1-.5.5-.7.8-1 0 .6-.3.9-.8 1z" fill="#3a354b"/><path d="M18 45.2v-.5c0-.4 0-.8.2-1.1.2.2.2.4 0 .7 0 .3.1.7-.2.9z" fill="#353045"/><path d="M74.5 81.4c.1.3.3.6.4.9-.5-.1-.6-.5-.6-.9.1-.1.2-.1.2 0z" fill="#272144"/><path d="M36.8 82.8c-.2.1-.4.1-.6.2-.2-.3.1-.5.2-.6.3-.1.3.1.4.4z" fill="#2b2449"/><path d="M70.7 85.5c-.3-.4-.9-.9.2-1.1 0 .4-.1.7-.2 1.1z" fill="#2b253e"/><path d="M77.8 85.7h.9c-.3.6-.6.3-.9 0z" fill="#231c48"/><path d="M64.8 86c-.1.4-.2.9-.2 1.3-.3-.4-.5-.9.2-1.3z" fill="#332e44"/><path d="M63.1 86.9c-.2-.3-.5-.1-.7-.1-.1-.5.3-.3.6-.3.2 0 .2.2.1.4z" fill="#231e37"/><path d="M45.8 88.5V87c.3.4.3 1 0 1.5z" fill="#2b234e"/><path d="M43.6 88.5c.2.1.4.2.6.2.1.3.1.5.2.8-.3-.3-.6-.6-.8-1z" fill="#3a3649"/><path d="M27.5 32.8c-.5-.5-.3-1 .2-1.4-.1.5-.1.9-.2 1.4z" fill="#3e3b44"/><path d="M42.3 89.2c.5.1.7.4.9.9-.5-.1-.8-.4-.9-.9z" fill="#363144"/><path d="M60.9 89.1h.2c-.1.5.2 1-.2 1.5v-1.5z" fill="#2a2446"/><path d="M47.8 13.8v.7c-.2 0-.5-.1-.5-.3 0-.3.3-.3.5-.4z" fill="#3a3748"/><path d="M28.6 84.9c.2.1.4.2.7.3.1-.1.1-.1.2 0-.6.7-.7-.1-.9-.3z" fill="#27223a"/><path d="M51.8 16c-.4-.1-.7-.3-.9-.6.4 0 .8.1.9.6z" fill="#272144"/><path d="M93.7 55.5c-.3-.2-.6-.1-.9-.1.4-.2.7-.5.9.1z" fill="#2d2746"/><path d="M87.5 60h-.6c.2-.4.5-.2.8-.2 0 .1-.1.2-.2.2z" fill="#2a2635"/><path d="M93.8 57.1c0-.2-.1-.3-.1-.5 0-.3 0-.5.1-.8.3.4.1.9.2 1.3-.1.1-.2.1-.2 0z" fill="#332e43"/><path d="M74.5 81.4h-.2c0-.4 0-.9.4-1.1 0 .4-.1.7-.2 1.1z" fill="#3c3748"/><path d="M52.9 23.6v.2c-.4-.1-1 .2-1.3-.3h1.1c0 .1.1.1.2.1z" fill="#22202f"/><path d="M48.2 88.2c.2-.2.5-.1.7 0 .1.1.1.2 0 .2-.2 0-.6.3-.7-.2z" fill="#28223e"/><path d="M93.8 57.1h.2c0 .4.1.9-.2 1.3-.1-.4-.1-.8 0-1.3z" fill="#2d254d"/><path d="M43.8 85.8h-.9a.45.45 0 0 1-.5 0c.5-.3 1-.3 1.4 0z" fill="#25203c"/><path d="M84 77.6c-.2.1-.4.2-.7.3 0-.3.1-.5.3-.6.3 0 .4.2.4.3z" fill="#25203f"/><path d="M15.6 58.6c-.3.2-.5.4-.5.7-.1.1-.1.1-.2 0 .1-.4-.1-.9.7-.7z" fill="#2f2a40"/><path d="M82.3 34c-.3.3-.6.6-.9.7.1-.4.4-.7.9-.7z" fill="#3c384a"/><path d="M83.4 80.1c-.4.4-.8.4-1.1 0h1.1z" fill="#2b263d"/><path d="M28.2 76.3c-.2.3-.4.7-.9.7.1-.4.4-.6.9-.7z" fill="#282241"/><path d="M29.4 85.2h-.2c.3-.2.5-.6.9-.6 0 .3-.3.5-.7.6z" fill="#353044"/><path d="M15.2 60.1c.2 0 .4.1.6.1-.2.3-.5.6-.9.2.1-.1.1-.2.3-.3z" fill="#393250"/><path d="M89.1 63.1h-.2c-.1-.2-.6-.1-.4-.5.4.1.7.2.9.4-.1.2-.2.2-.3.1z" fill="#2f2a3e"/><path d="M74.7 87.8h-1.1c.4-.4.7-.4 1.1 0z" fill="#28233d"/><path d="M59.7 20.9c0-.2 0-.4.1-.7.2.2.2.5.2.8 0 .1.1.3-.2.2-.1 0-.1-.2-.1-.3z" fill="#292637"/><path d="M52.7 19.1c.4.4.2.9.2 1.3-.1.1-.2.1-.2 0-.2-.4-.2-.8 0-1.3z" fill="#2a2444"/><path d="M39 19.6h-.4c-.2-.4.2-.4.4-.4.2.1.1.3 0 .4z" fill="#2e2940"/><path d="M48.9 88.3h1.3v.2h-1.3z" fill="#3d3847"/><path d="M51.3 88.3v1.4c-.1.1-.2.1-.2 0 .1-.6-.1-1 .2-1.4z" fill="#2c2545"/><path d="M24.6 80.6c.2.1.4.1.7.2 0 .2-.1.4-.3.3-.3-.1-.3-.3-.4-.5z" fill="#302b3a"/><path d="M44.5 88.5h1.3c-.4.4-.9.2-1.3.2v-.2z" fill="#363144"/><path d="M85.3 75.4c-.3-.2-1.1-.3-.2-.9.1.3.2.6.2.9z" fill="#29243e"/><path d="M33.9 30.5c.3.3.6 0 .9-.1-.3.4-.5.8-.9.1z" fill="#454054"/><path d="M55.7 89.8v-.9c.4.3.4.6 0 .9z" fill="#201c30"/><path d="M37.1 27.2c-.4.1-.6.1-.9 0 .2-.2.5-.1.9 0z" fill="#292245"/><path d="M49.8 90.9v-.7c.2 0 .4.1.4.3 0 .3-.2.4-.4.4z" fill="#2e274d"/><path d="M81.3 74.6v-.2c.4.1.7.3.9.6-.3 0-.7 0-.9-.4z" fill="#3a3549"/><path d="M32.3 30.4H31c.5-.3.9-.3 1.3 0z" fill="#1f183d"/><path d="M90.2 55.6c-.1.2-.2.4-.2.7-.3-.4-.4-.7.2-.9.1 0 .1.1 0 .2z" fill="#272043"/><path d="M62.4 17.3c-.2 0-.5-.1-.7-.1.3-.2.6-.2.9-.1-.1 0-.1.1-.2.2z" fill="#272049"/><path d="M45.6 17.2h-.7c.38-.3.92-.3 1.3 0-.2-.1-.4 0-.6 0z" fill="#29234d"/><path d="M24.9 77.7c.2-.4.6-.4.9-.7-.1.5-.5.7-.9.7z" fill="#29233f"/><path d="M48.9 16.7c-.3 0-.6.1-.9.1.2-.4.6-.4.9-.1z" fill="#1f1a38"/><path d="M61.9 86.9c-.1.2-.2.5-.3.7-.2-.2-.3-.5-.1-.7s.3-.1.4 0z" fill="#262238"/><path d="M51.5 22.5c0 .4.1.7.1 1.1-.4-.4-.3-.8-.1-1.1z" fill="#242231"/><path d="M50.9 15.4c-.2-.2-.4-.3-.7-.5.6-.3.6.2.7.5z" fill="#282241"/><path d="M55.7 22.3c.3 0 .7-.1.8.4-.3 0-.6-.1-.8-.4z" fill="#39354b"/><path d="M18.2 44.3v-.7c0-.1 0-.3.1-.4.2.4.2.7-.1 1.1z" fill="#292249"/><path d="M88.4 70.1c-.3-.1-.8-.1-.6-.7.2.2.6.3.6.7z" fill="#312e37"/><path d="M54.2 19.6v1.1c-.3-.4-.3-.7 0-1.1z" fill="#261e4e"/><path d="M90.2 55.6v-.2c.4 0 .7.1.9.4h-.3c-.2-.1-.4-.1-.6-.2z" fill="#373245"/><path d="M20.4 57.1c.3-.2.6-.3.9-.3-.2.3-.5.7-.9.3z" fill="#282241"/><path d="M71.9 83.1c-.3-.1-.6-.1-.9-.1.4-.4.7-.4.9.1z" fill="#2f2b39"/><path d="M46.7 88.5c0 .2-.1.4-.1.6-.2-.2-.3-.5-.1-.8.2-.2.2.1.2.2z" fill="#2c2740"/><path d="M32.8 24.1c.2-.2.4-.3.7-.5-.1.3-.2.7-.7.5z" fill="#282243"/><path d="M16.6 64.8c-.1.2-.4.3-.3.7-.6-.5-.1-.6.3-.7z" fill="#3e3a48"/><path d="M28.6 83.8c-.2.2-.2.4-.2.7-.2-.1-.4-.2-.3-.4 0-.2.3-.2.5-.3z" fill="#3c3948"/><path d="M89.1 58.9h.4c-.3.2-.5.3-1 .1.3-.1.5-.1.6-.1z" fill="#241e3f"/><path d="M18.4 61.3h1.1v.2h-1.1z" fill="#1e1931"/><path d="M15.2 60.1l-.3.3v-1.1h.2c0 .3 0 .6.1.8z" fill="#2a2637"/><path d="M19.1 59.8c.1 0 .3 0 .4-.1.1 0 .3.1.7.2-.6.1-.9.1-1.1-.1z" fill="#251e41"/><path d="M21.1 76.9c.3.1.6.4.6.7-.4 0-.6-.2-.6-.7z" fill="#332e42"/><path d="M65.9 85.4c-.3.2-.6.4-.9.4.2-.3.5-.5.9-.4z" fill="#464153"/><path d="M90.4 61.7c.2 0 .4.1.6.1-.2.2-.5.3-.8.1-.1-.1.2-.1.2-.2z" fill="#2c263e"/><path d="M73 86.1c-.1-.2-.1-.5-.2-.7.3.1.7.2.2.7z" fill="#3b3649"/><path d="M22.4 62.6c-.3-.2-.2-.6-.2-.9.4.3.1.7.2.9z" fill="#241d49"/><path d="M79.6 79.5c.2.2.6.4.6.8-.4-.1-.6-.4-.6-.8z" fill="#251f40"/><path d="M42.5 85.8h.5c-.3.1-.6.3-.9.4 0-.2.1-.4.4-.4z" fill="#3d3948"/><path d="M21.9 35.5c0-.4.2-.6.5-.2-.1.1-.2.4-.5.2z" fill="#252039"/><path d="M80.5 80.7c.4 0 .6.2.8.5-.3 0-.7-.1-.8-.5z" fill="#251f3f"/><path d="M36.3 90.1v.2c-.3 0-.5-.2-.7-.5.4-.3.4.2.7.3z" fill="#282240"/><path d="M91.7 60.7c-.2 0-.4 0-.6-.1.2-.2.5-.3.8-.1.2.1-.1.1-.2.2z" fill="#2a253c"/><path d="M51.1 89.6h.2v1.1c-.3-.3-.2-.7-.2-1.1z" fill="#1f1a34"/><path d="M39.8 26.6c.2.1.3.1.5.2.1.2 0 .2-.2.2s-.4-.1-.3-.4z" fill="#251f36"/><path d="M49.1 90.1c-.2 0-.4 0-.7-.1.2-.2.5-.3.8-.1.3.1 0 .1-.1.2z" fill="#2a263a"/><path d="M70.1 26.2c.3.1.5.3.8.4-.4 0-.9.3-.8-.4z" fill="#38334b"/><path d="M70.9 88.9l.3.6c-.4 0-.5-.2-.3-.6z" fill="#28223c"/><path d="M67.2 91.3v-.2h1.1c-.3.5-.7.4-1.1.2z" fill="#322d41"/><path d="M50.9 92.4v-.8h.1c0 .3.1.6.1.8-.1.2-.1.2-.2 0z" fill="#20193f"/><path d="M61 17c-.2 0-.4-.1-.6-.1.2-.2.5-.3.8-.1.2.1-.1.1-.2.2z" fill="#29253d"/><path d="M52.6 20.5h.2c0 .4.1.8-.2 1.1.1-.4.1-.7 0-1.1z" fill="#1e1a33"/><path d="M47.6 16.9c-.2 0-.4 0-.7.1 0-.1-.4-.1-.1-.2.3-.2.6-.1.8.1z" fill="#252136"/><path d="M50.9 92.4h.2c.1.4 0 .7-.1 1.1-.2-.3-.1-.7-.1-1.1z" fill="#2d2740"/><path d="M32.3 87.4c0-.1.1-.1.1-.2.1.2.2.4 0 .6-.1.1-.2 0-.3 0 .1-.2.1-.3.2-.4z" fill="#2a253f"/><path d="M49.5 92.9h-1.1c.4-.3.8-.3 1.1 0z" fill="#241d41"/><path d="M62.4 24.2h.2c0 .3-.2.4-.5.4-.2 0-.2-.1-.2-.3.2 0 .3 0 .5-.1z" fill="#231f36"/><path d="M57.8 16.4s-.1-.1-.1-.2h.9c-.3.4-.5.2-.8.2z" fill="#251f43"/><path d="M68.7 89.1c-.1-.1-.1-.2-.2-.2.3-.3.6-.3.9.1-.2-.1-.5 0-.7.1z" fill="#2d2841"/><path d="M53.6 64.2c0 1.1-.6 2-1.6 2.3-.7.2-.6.4-.4 1 1.6 3.3 2 6.8 1.5 10.4-.1 1-.4 1.4-1.5 1.2-3.6-.6-7.2-1.4-10.4-3.5-2-1.3-2-1-.5-3 1.9-2.8 4.5-4.8 7.4-6.5.6-.4.8-.6.6-1.4-.3-1 0-1.9.9-2.5.8-.6 1.8-.7 2.7-.3.8.5 1.3 1.2 1.3 2.3zM35 57.3c2.4 0 4.7.4 7 1 .5.1.8.1 1.1-.4.7-1.3 2.2-1.7 3.4-1 1.1.6 1.6 2 1.1 3.2-.6 1.3-2 1.9-3.3 1.3-.7-.3-.8-.1-1 .5-1.3 3.6-3.6 6.4-6.8 8.6-.3.2-.6.6-1 0C32.9 67 30.7 63.3 30 59c-.1-.9.1-1.2 1-1.3 1.3-.3 2.7-.4 4-.4zm39.4-4.2c-2.7 0-5.4-.5-8-1.4-.6-.2-.9-.2-1.2.4a2.46 2.46 0 0 1-3.5.7 2.54 2.54 0 0 1-.8-3.4c.7-1.1 2.1-1.6 3.4-.9.6.3.7.2 1-.4 1.5-3.5 4-6.2 7.2-8.2.4-.3.8-.5 1.2.1 2.1 3.3 4 6.8 4.6 10.8v.3c.2 1.6.2 1.6-1.5 1.8-.3 0-.6.1-.9.1-.5.1-1 .1-1.5.1zm-13.7 5c0-1.2.8-2.2 2-2.5s2.5.3 2.9 1.5c.3.9.6.7 1.2.4 3.5-1.6 7.1-1.8 10.8-1.1.4.1.8.1.7.7-.7 4.1-1.7 8.1-4.1 11.6-.6.9-1.1 1-2 .4-2.9-2.1-5.2-4.8-6.9-7.9-.4-.6-.6-1-1.5-.7-1.7.4-3.1-.8-3.1-2.4zm-4.2 16.3c0-2.5.4-4.9 1.2-7.3.2-.5.2-.9-.4-1.2-1.3-.7-1.6-2.3-.9-3.4s2.2-1.6 3.4-.9c1.2.6 1.7 2.1 1 3.3-.4.8 0 .8.5 1 3.5 1.4 6.3 3.8 8.4 6.9.3.4.6.7 0 1.2-3.2 2.3-6.6 4.2-10.6 5-1.9.4-2 .4-2.3-1.5-.2-1.1-.2-2.1-.3-3.1zm-1.2-40.7c-.1-3.5.1-3.7 3.5-2.9 3.3.7 6.5 1.8 9.3 3.8.8.6.8 1 .3 1.8-2.1 3.1-5 5.3-8.2 7.1-.5.3-.8.4-.6 1.2.4 1.4-.4 2.7-1.7 3.1s-2.7-.4-3.1-1.7.2-2.7 1.6-3.2c.2-.1.4-.1.6-.2-1-2.2-1.8-4.4-1.7-6.8.2-.7.2-1.4 0-2.2zM42 51.8c-3.5 1.8-7.2 2.2-11 1.6-.5-.1-1-.1-.9-.9.6-4 1.6-7.8 4-11.2.5-.7.9-.8 1.7-.3 3 2 5.1 4.7 6.9 7.7.3.5.5.8 1.3.6 1.3-.4 2.6.4 2.9 1.7.3 1.2-.4 2.5-1.5 2.9-1.3.4-2.5-.1-3.1-1.4-.1-.2-.2-.4-.3-.7zm9.3-16c0 2.4-.3 4.6-.9 6.7-.2.6-.2.9.5 1.3 1.2.7 1.5 2.1.9 3.3-.6 1.1-2 1.5-3.2 1-1.2-.6-1.8-1.9-1.2-3.2.4-.7.1-.8-.5-1-3.4-1.2-6.1-3.5-8.2-6.4-.2-.3-.6-.7 0-1.1 3.2-2.4 6.5-4.4 10.5-5.2 1.5-.3 1.5-.2 1.8 1.2.2 1.2.2 2.4.3 3.4z" fill="#e02129"/><path d="M55.3 33.7c.4.7.4 1.5 0 2.2-.1-.7-.1-1.4 0-2.2z" fill="#df1b23"/><path d="M36.3 25.1v-.4c.5-.4.5-.9 0-1.3-.1-.2-.1-.4-.2-.5-.7-.6-.4-.9.3-1.1.8-.3.9.4 1.2.8.2.3.3.7.5 1 .4.6.2 1.1-.1 1.7l-.5.5c-1 .2-1.1.2-1.2-.7zm-9.2 5.2v.1c-.3.2-.5.6-.6.9-.1.1-.2.3-.3.4-.3.4-.5.7-.2 1.1v.2c-.2.3-.7 0-.9.3-.5.2-1.1.5-1.5 0-.2-.3.3-.7.5-1.1.2-.5.7-.7 1-1.1.3-.3.7-.5.8-.9.4-.4.6-1.1 1.4-1.1.5.4.1.8-.2 1.2z" fill="#413874"/><path d="M25.9 25.1c1-.5 1.9-.2 2.7.2.2.1.1.3.1.5-.4.2-.8.4-1.1.8-.3.3-.5.7-1 .8-.4 0-.8 0-1.2-.1-.4-.2-.4-.6-.4-1 .3-.6.7-.8.9-1.2z" fill="#423a73"/><path d="M24.4 34.1c.3-.2.7-.2 1-.2.4 0 .8-.4 1.1 0 .3.3 0 .7-.2 1-.3.4-.6.9-1.2.6-.1 0-.2-.1-.2-.2-.4-.3-.5-.8-.5-1.2z" fill="#49436b"/><path d="M36.3 25.1c.1.8.8.7 1.3.7-.4.6-.9.3-1.4.1-.7-.4-.3-.6.1-.8z" fill="#3f3b4a"/><path d="M24.4 34.1c.7.1.1.8.5 1.1-.3-.1-.6-.4-.8-.6-.3-.3-.2-.5.3-.5z" fill="#363249"/><path d="M27.1 30.3c.2-.4.4-.8.2-1.2.8.6.8.7-.2 1.2z" fill="#474354"/><path d="M38.1 25.3c.1-.6.3-1.2 0-1.7.1-.1.1-.1.2 0 .4.6.4 1.2-.2 1.7z" fill="#464252"/><path d="M37.6 22.7c-.5-.2-.5-1-1.2-.9.9-.7 1 .1 1.2.6.2.1.1.2 0 .3z" fill="#454156"/><path d="M29.5 34.6h-2c.7-.3 1.3-.2 2 0z" fill="#332965"/><path d="M25.9 25.1c0 .4-.3.7-.7.9-.1.1-.1.1-.2 0 .2-.5.5-.8.9-.9z" fill="#474256"/><path d="M36.3 23.3c.6.4.6.9 0 1.3.2-.4.2-.8 0-1.3z" fill="#2e2a44"/><path d="M27.7 26.4c.2-.4.5-.7 1.1-.7-.3.4-.6.7-1 .9-.2 0-.2-.1-.1-.2z" fill="#3c374e"/><path d="M25.9 30.2c0 .5-.3.8-.8.9.1-.5.4-.8.8-.9z" fill="#37324b"/><path d="M37.6 22.7v-.3c.3.3.5.7.6 1.2H38c-.2-.3-.3-.6-.4-.9z" fill="#484453"/><path d="M27.7 26.4v.3c-.2.3-.3.5-.7.7h-.3c-.1-.1-.1-.2 0-.3.4-.2.7-.4 1-.7z" fill="#373347"/><path d="M26.8 27.1v.2c-.4.2-.8.1-1.2.1-.2 0-.4 0-.4-.3.1-.1.2-.1.3 0h1.3z" fill="#39344a"/><path d="M26 32.9c-.3-.4-.5-.8.2-1.1-.1.3-.2.7-.2 1.1z" fill="#38334d"/><path d="M25.5 27.1h-.3c-.4-.3-.2-.7-.1-1.1h.2c0 .4 0 .8.2 1.1z" fill="#2f2b40"/><path d="M25.1 33.3c-.1-.1-.4-.1-.1-.2s.6 0 1-.1c-.2.5-.6.2-.9.3z" fill="#2f2a42"/><path d="M26.4 31.3c0-.4.1-.8.6-.9 0 .4-.4.7-.6.9z" fill="#4b4758"/><path d="M25.7 27.4c.4 0 .8 0 1.2-.1.1 0 .2 0 .3.1-.6.2-1.1.2-1.5 0z" fill="#423a73"/><path d="M72.1 23.1l.3-.9c.1-.4.4-.5.6-.2.3.5.8.5 1.1.9-.1.4-.5.8-.6 1.2-.8 1.8-1.2 2-2.7 1.4-.2-.4-.8-.7-.5-1.3.3-.3.7 0 1.1-.2.3-.2.7-.4.7-.9z" fill="#3e376a"/><path d="M70.3 24.2c-.1.5.4.8.4 1.3-.6-.2-.9-.6-.9-1.2-.1-.4.2-.5.5-.4.2.2.2.3 0 .3z" fill="#343046"/><path d="M72.1 23.1c.3.7-.2.8-.7.9-.1 0-.1-.1-.1-.1s0-.1.1-.1l.7-.7z" fill="#3c384c"/><path d="M73.4 24.1c0-.5.2-.9.6-1.2.1.5-.3.9-.6 1.2z" fill="#474353"/><path d="M71.4 23.8v.2c-.3.3-.7.2-1.1.2V24c.4-.1.8-.1 1.1-.2z" fill="#46424b"/><path d="M57.7 18c.9-.4.6.3.7.7.2.5.1.9 0 1.4-.2.3-.2.7-.6.8-.4.2-.8.5-1.2.4s-.6-.5-.8-.8v-.4c.3-.2.4-.7.7-.8.4-.3.9.3 1.3-.1.1-.5.1-.8-.1-1.2z" fill="#332964"/><path d="M51.1 18c.1.2-.1.3-.2.4l-.1.1c-.4 0-.7-.5-1.3-.2.3.6 1 .3 1.4.6.1.1.3.2.2.4-.6.4-1.2.2-1.9.2-.5 0-.8-1.6-.5-2 .5-.2 1.1 0 1.6-.1.5.1.7.3.8.6z" fill="#362e5e"/><path d="M51.1 18c-.6-.8-1.5-.2-2.3-.5.6-.2 1.1-.1 1.7-.2.5 0 .6.3.6.7z" fill="#4f4c58"/><path d="M58 19.2c-.5.4-1 .1-1.6.2-.2.1-.3 0-.2-.2.5-.5 1-.1 1.5-.1.1-.1.2-.1.3.1z" fill="#2b2545"/><path d="M56.4 21.1c.5-.1.9-.1 1.4-.2-.4.7-1 .7-1.6.4 0-.1.1-.2.2-.2z" fill="#353144"/><path d="M58 19.2h-.3c.3-.8-.4-.9-.9-1 .1 0 .2-.1.3-.1.2 0 .4 0 .7.1.3.2.1.6.2 1z" fill="#3b3555"/><path d="M56.2 19.2l.2.2c-.2.3-.2.6-.6.6-.1-.3 0-.6.4-.8zm.2 1.9l-.2.2c-.4-.2-.5-.4-.4-.8.2.1.5.3.6.6z" fill="#342b63"/><path d="M52.7 19.2v1.3c-.2-.4-.2-.9-.1-1.3-.1 0 0 0 .1 0z" fill="#332965"/><path d="M58.4 20.1v-1.4h.2a2.2 2.2 0 0 1-.2 1.4z" fill="#3b3555"/><path d="M51.1 19.4l-.2-.2c-.2-.2-.2-.4 0-.7.4.2.4.5.2.9z" fill="#312c46"/><path d="M87.3 63.6c.1 0 .1-.1.2-.1.7 0 1.3 0 2 .1.1 0 .1.1.1.1s0 .1-.1.1c-.7-.1-1.5 0-2.2-.2z" fill="#332965"/><path d="M89.3 61.5c-.3.1-.5.1-.7.3l-1.2-.4c.9-.3 1.4-.1 1.9.1z" fill="#474546"/><path d="M89.5 63.7v-.2l-.4-.4h.2c.3.1.9.1.8.6 0 .2-.4.1-.6 0z" fill="#2c283d"/><path d="M88.5 64.6c-.5.2-1.1-.1-1.6.2-.3-.3 0-.3.2-.3.5 0 .9 0 1.4.1z" fill="#5d5b5c"/><path d="M22.8 76.8c-.2-.2-.4-.3-.6-.5-.2-.34-.2-.76 0-1.1l.3-.3c.3-.1.6-.3.8-.6.6-.1 1.1-.6 1.6-.9.8-.5 1.1 0 1.5.3.6.5-.1.8-.4 1.1-.7.7-1.3 1.5-2.2 1.9-.4 0-.7.1-1 .1z" fill="#3d3573"/><path d="M22.8 76.8c.3-.3.6-.3.9-.1-.3.1-.5.5-.9.1z" fill="#2d2940"/><path d="M23.3 74.4c-.1.5-.4.6-.8.6.2-.3.4-.5.8-.6z" fill="#282440"/><path d="M22.2 75.3v1.1c-.5-.4-.5-.8 0-1.1z" fill="#423f4c"/><path d="M17.5 58.4c.2.1.3.2.5.3-.3.1-.7.2-1 .1 0-.3.3-.3.5-.4z" fill="#1b181e"/><path d="M54.2 88.9c.3.8.5 1.5-.7 1.6-.6-.1-1-.2-.8-1 .2-1.2 1-.5 1.5-.6z" fill="#3f3769"/><path d="M54.2 88.9l-.2.2c-.4-.2-.8-.4-1.1.1-.3.6.1 1 .6 1.2-.3.1-.6.1-.9 0-.2-.4-.1-.8 0-1.2.3-1 1-.6 1.6-.3z" fill="#2f2a47"/><path d="M52.6 89.3v1.2c-.4-.4-.1-.8 0-1.2z" fill="#434051"/><path d="M43.4 87.2c-.1.3-.1.6-.2.8-.5-.5-.4-.8.2-1 .1 0 .1.1 0 .2z" fill="#363144"/><path d="M43.4 87.2V87c.3-.1.7-.2.9.2v.3c-.3-.3-.6-.4-.9-.3z" fill="#363340"/><path d="M32 82.9c.3-.4.7-.7 1.3-.8-.1.6-.4 1.1-.7 1.5-.4-.1-.5-.4-.6-.7z" fill="#302c36"/><path d="M32 82.9c.5 0 .6.3.6.7-.2.3-.5.4-.8.3-.3-.2-.2-.4-.1-.7l.3-.3z" fill="#3a3266"/><path d="M31.7 83.2c0 .8.4.6.9.4 0 .6-.4.5-.8.5-.2 0-.5-.2-.5-.5-.1-.2.1-.4.4-.4z" fill="#413d4d"/><path d="M20.2 63.2l-1.1.5c-.3-.1-.8 0-.8-.5 0-.6.5-.4.8-.4.4 0 1-.4 1.1.4z" fill="#423d5b"/><path d="M20.2 63.2c-.2-.4-.6-.3-1-.3-.3 0-.7-.1-.7.3-.1.4.4.3.6.5-.3-.1-.6.5-.8.1-.2-.3-.3-.7-.2-1s.5-.1.8-.2H20c.3-.1.5-.1.7.2-.1.3-.3.3-.5.4z" fill="#43404a"/><path d="M20.6 62.9c-.2-.1-.4-.2-.7-.2.4-.2.9-.1 1.3-.2 0 .5-.4.3-.6.4z" fill="#6d6a6b"/><path d="M49.8 87.2v.2c-.4 0-.8 0-1.1-.2h1.1z" fill="#332965"/><path d="M50.9 18.5v.7h-1.1c-.6 0-.7-.5-.7-.9 0-.6.5-.3.8-.4.6-.2.7.2 1 .6z" fill="#423971"/></g></svg>